<svg version="1.1" id="Layer_1" xmlns="http://www.w3.org/2000/svg" xmlns:xlink="http://www.w3.org/1999/xlink" x="0px" y="0px"
	 width="100%" viewBox="0 0 517 483" enable-background="new 0 0 517 483" xml:space="preserve">
<path fill="#000000" opacity="1.000000" stroke="none" 
	d="
M1.000000,170.000000 
	C1.000000,113.347366 1.000000,57.194729 1.000000,1.021046 
	C173.276245,1.021046 345.552490,1.021046 517.914368,1.021046 
	C517.914368,161.902664 517.914368,322.805389 517.914368,483.854065 
	C345.666748,483.854065 173.333389,483.854065 1.000000,483.854065 
	C1.000000,379.447449 1.000000,274.973724 1.000000,170.000000 
M394.765961,89.417557 
	C393.876038,88.556664 392.986145,87.695770 391.778961,86.228432 
	C381.103333,77.931976 371.003571,68.793610 358.569946,63.036339 
	C350.423004,59.263973 342.191010,55.675331 333.531647,51.437729 
	C328.015564,49.967808 322.499481,48.497887 317.002533,47.003429 
	C317.002533,47.003429 316.977936,47.018188 316.554626,46.420715 
	C311.354645,45.020016 306.216003,43.290508 300.938416,42.305565 
	C294.945282,41.187080 288.827820,40.734631 282.413940,39.229588 
	C271.118103,39.144360 259.822266,39.046982 248.526260,39.016949 
	C248.059311,39.015701 247.590668,39.645355 246.630569,40.549171 
	C241.786911,41.032452 236.829971,41.021690 232.122910,42.100777 
	C221.994629,44.422661 211.994980,47.305523 201.525604,49.984028 
	C201.525604,49.984028 201.107788,49.979267 200.423386,49.949364 
	C200.112518,50.255905 199.801651,50.562450 199.279861,50.738388 
	C199.279861,50.738388 199.076233,50.880108 198.357925,51.114063 
	C194.314041,52.925098 190.185181,54.569649 186.243637,56.581230 
	C177.567917,61.008930 168.749252,65.232368 160.448853,70.293472 
	C154.718323,73.787621 150.076691,79.058167 144.369263,82.602081 
	C137.796814,86.683098 133.134140,92.503212 127.384903,98.263237 
	C124.618942,101.280815 121.569870,104.088509 119.145264,107.359146 
	C113.904572,114.428497 108.984062,121.735222 103.970757,129.003082 
	C103.970757,129.003082 103.946625,128.943085 103.294403,129.186432 
	C99.511414,136.446426 95.728424,143.706406 91.982391,151.008347 
	C91.982391,151.008347 91.966156,150.955887 91.355858,151.319595 
	C90.878502,152.187653 90.254974,153.006821 89.945930,153.931152 
	C85.946373,165.893555 81.584381,177.757492 78.204002,189.894226 
	C76.608795,195.621597 76.917747,201.879333 76.193863,208.581589 
	C76.126701,209.047241 76.059540,209.512878 75.365829,210.535233 
	C75.269806,222.966202 74.819420,235.408875 75.229164,247.823151 
	C75.430191,253.913742 77.227180,259.951691 78.209686,266.681641 
	C78.224701,267.130432 78.239716,267.579224 78.078445,268.754242 
	C78.378578,269.878784 78.678711,271.003357 79.054062,272.534302 
	C79.054062,272.534302 79.143570,272.937744 79.061592,273.560089 
	C79.384415,274.033447 79.707245,274.506775 80.110191,275.636017 
	C80.144867,276.075134 80.179550,276.514282 80.012573,277.757782 
	C80.628670,279.769806 81.170250,281.808289 81.873314,283.789429 
	C85.645287,294.418427 88.703499,305.382416 93.424858,315.574463 
	C101.366325,332.717773 112.308769,348.041351 125.336121,361.768677 
	C128.230194,364.818298 131.764145,367.260681 135.298523,370.604187 
	C141.128113,379.285126 150.016479,384.641479 158.400360,390.042999 
	C168.992798,396.867462 180.522766,402.368530 192.021545,407.623840 
	C209.689453,415.698700 228.317429,420.385376 248.256393,421.841522 
	C259.175171,421.911560 270.093903,421.998749 281.012756,422.009613 
	C281.678192,422.010284 282.344238,421.405640 283.070801,421.175201 
	C283.070801,421.175201 283.179871,421.194275 283.972229,421.049438 
	C287.257324,421.002625 290.688599,421.561279 293.803467,420.809296 
	C312.032196,416.408661 330.754974,413.453857 347.454559,404.191132 
	C358.546600,398.038757 370.367096,392.716248 380.224243,384.945374 
	C392.070190,375.606659 402.833740,364.640869 412.833893,353.293762 
	C421.088806,343.926910 428.574066,333.542603 434.586395,322.611420 
	C445.974915,301.905365 453.167755,279.559418 455.943542,255.958801 
	C456.260223,253.266068 455.998505,250.505325 456.744812,247.405991 
	C456.841003,236.224808 456.937195,225.043625 457.050873,213.007614 
	C456.988098,211.689041 457.094727,210.336182 456.835999,209.057251 
	C454.602509,198.017914 452.674744,186.896362 449.874268,176.000214 
	C448.365082,170.128281 445.327606,164.649109 442.908844,158.526688 
	C442.908844,158.526688 442.809631,158.065842 442.891327,157.450851 
	C442.601990,156.945923 442.312653,156.440994 442.030731,155.187347 
	C435.879639,140.272263 427.510071,126.643433 417.523010,114.047714 
	C413.052917,108.410004 407.844269,103.357895 403.000305,98.000488 
	C403.000305,98.000488 402.960266,98.029022 402.700592,97.402649 
	C400.141327,94.921791 397.582092,92.440926 395.001740,90.002304 
	C395.001740,90.002304 395.040802,89.975433 394.765961,89.417557 
z"/>
<path fill="#1A296E" opacity="1.000000" stroke="none" 
	d="
M78.254730,268.028015 
	C78.239716,267.579224 78.224701,267.130432 78.572731,266.229187 
	C79.137077,264.589905 79.599518,263.380310 79.498360,262.219879 
	C78.689842,252.945618 77.591736,243.693375 76.947296,234.409042 
	C76.383232,226.282608 76.292313,218.123306 75.992371,209.978531 
	C76.059540,209.512878 76.126701,209.047241 76.540405,208.035980 
	C77.591309,205.511276 78.763092,203.569214 78.923386,201.546982 
	C79.890465,189.346695 83.131615,177.879868 88.266930,166.738541 
	C90.482971,161.930725 90.791237,156.243576 91.966156,150.955887 
	C91.966156,150.955887 91.982391,151.008347 92.321632,150.948151 
	C93.734703,149.550156 94.973724,148.311462 95.848145,146.854004 
	C97.691994,143.780701 99.531204,140.678024 101.018547,137.425644 
	C102.256760,134.718033 102.989822,131.779388 103.946625,128.943085 
	C103.946625,128.943085 103.970757,129.003082 104.329453,128.984924 
	C106.204948,128.112900 108.312363,127.637787 109.142380,126.343506 
	C114.395790,118.151588 119.015305,109.527328 126.689613,103.147743 
	C127.465233,102.502983 127.585403,101.069756 128.275757,99.787155 
	C132.297195,96.267036 135.942459,92.824142 139.847885,89.707237 
	C142.339188,87.718948 145.338104,86.376251 147.893082,84.456192 
	C152.658264,80.875183 157.052490,76.765869 161.991089,73.458817 
	C168.651688,68.998627 174.524139,63.307827 182.778870,61.247879 
	C187.538986,60.059998 191.996033,57.442768 196.373749,55.070705 
	C197.655228,54.376339 198.195984,52.314941 199.076233,50.880108 
	C199.076233,50.880108 199.279861,50.738388 199.694855,50.732887 
	C200.442490,50.478008 200.775146,50.228638 201.107788,49.979267 
	C201.107788,49.979267 201.525604,49.984028 201.817413,50.303246 
	C205.286407,50.114010 208.473816,49.661926 211.638901,49.086964 
	C222.985077,47.025826 234.262375,43.698265 245.679718,43.126572 
	C262.311829,42.293758 279.054749,43.151608 295.725861,43.863773 
	C302.841827,44.167759 309.895782,45.922619 316.977936,47.018188 
	C316.977936,47.018188 317.002533,47.003429 317.084625,47.365364 
	C321.778625,49.484489 326.390533,51.241684 331.234070,53.265869 
	C332.938538,54.277222 334.335114,55.367405 335.896179,55.711617 
	C349.202698,58.645748 359.945282,66.746048 371.281555,73.499321 
	C378.261169,77.657249 384.458374,83.128479 391.094818,88.356232 
	C392.468750,89.126762 393.754791,89.551102 395.040802,89.975433 
	C395.040802,89.975433 395.001740,90.002304 395.005249,90.372932 
	C394.947632,96.131592 399.565308,96.413048 402.960266,98.029022 
	C402.960266,98.029022 403.000305,98.000488 403.000824,98.380493 
	C407.026001,104.071091 411.239105,109.251068 415.031372,114.722733 
	C420.793610,123.036713 426.420868,131.454346 431.803558,140.017731 
	C435.469330,145.849731 438.619354,152.005920 442.202515,158.027695 
	C442.404999,158.038239 442.809631,158.065842 442.809631,158.065842 
	C442.809631,158.065842 442.908844,158.526688 442.940613,159.133957 
	C442.973419,160.489059 442.974487,161.236877 442.839539,162.088043 
	C442.797852,162.461426 442.892181,162.731461 443.007263,163.387161 
	C443.644989,165.104065 444.539795,166.376480 444.836182,167.775650 
	C447.899994,182.237961 451.227997,196.658020 453.759003,211.215607 
	C456.251770,225.553146 455.319336,240.001785 453.136292,254.341049 
	C451.486481,265.177734 450.016113,275.877899 445.581696,286.294769 
	C442.558350,293.396912 441.796875,301.540619 437.752991,308.560181 
	C434.391205,314.395752 432.141174,320.903839 428.519531,326.550110 
	C423.048065,335.080231 417.388062,343.622162 410.750031,351.236572 
	C403.027588,360.094940 394.487885,368.323547 385.686981,376.131195 
	C379.344055,381.758301 372.119415,386.435638 365.066162,391.208679 
	C350.902039,400.793854 335.303619,407.491028 318.878662,411.867920 
	C307.117645,415.001953 294.974396,416.701782 282.557037,419.030457 
	C277.991821,419.345062 273.842926,420.143829 269.756622,419.898651 
	C261.035645,419.375427 252.315567,418.549896 243.653809,417.404388 
	C234.113647,416.142731 224.562912,414.739624 215.161301,412.724091 
	C208.112640,411.212982 200.984680,409.318512 194.443436,406.371033 
	C184.723083,401.991119 175.385696,396.713989 166.094528,391.449493 
	C161.675919,388.945831 157.718231,385.620117 153.590881,382.613068 
	C147.380798,378.088684 141.205078,373.517120 134.997787,368.598877 
	C134.509018,367.208618 134.249969,365.994141 133.530685,365.192688 
	C129.091629,360.246704 124.100349,355.729828 120.136406,350.438232 
	C112.512283,340.260559 104.470139,330.193939 98.437927,319.084076 
	C92.693413,308.504059 89.368477,296.621002 84.804565,285.381989 
	C83.608597,282.436768 81.762024,279.755737 80.214233,276.953400 
	C80.179550,276.514282 80.144867,276.075134 80.074287,275.074524 
	C80.038383,274.513031 80.038948,274.045776 80.175568,273.933594 
	C80.208130,273.543762 80.104073,273.266113 79.785896,272.975830 
	C79.571785,272.963226 79.143570,272.937744 79.143570,272.937744 
	C79.143570,272.937744 79.054062,272.534302 79.040207,272.056763 
	C79.034386,271.396271 79.042419,271.213348 79.243958,270.860382 
	C79.300049,270.112793 79.162636,269.535248 78.931580,268.775360 
	C78.684425,268.362488 78.490028,268.174164 78.254730,268.028015 
M421.503448,322.612671 
	C421.670044,322.079285 421.836609,321.545868 422.209320,320.521210 
	C422.273468,320.355621 422.337646,320.190033 423.068573,319.965057 
	C423.669189,318.928131 424.269836,317.891235 424.994995,316.928101 
	C424.994995,316.928101 424.855896,316.888184 425.568848,316.824310 
	C426.138916,316.073334 426.877380,315.397522 427.251526,314.559113 
	C429.576965,309.347900 431.998260,304.168671 434.048492,298.848114 
	C436.883423,291.491211 439.835052,284.137939 441.999664,276.572235 
	C447.316223,257.989929 447.374512,238.878281 447.032867,219.742920 
	C446.770966,205.073853 444.180756,190.770294 440.611420,176.624649 
	C439.459961,172.061386 437.873169,167.543579 435.920471,163.262711 
	C433.312622,157.545670 430.311432,151.990067 427.195435,146.526932 
	C422.383301,138.089996 417.816162,129.447220 412.228973,121.539001 
	C407.628937,115.028084 401.832489,109.329185 396.295380,103.529007 
	C393.896149,101.015816 390.816254,99.152382 388.013367,96.979836 
	C388.013367,96.979836 387.988190,96.958565 387.760773,96.570274 
	C387.572266,96.326630 387.333893,96.150391 386.640686,95.765770 
	C386.386719,95.551407 386.189667,95.293541 386.427765,94.567734 
	C385.633698,94.046600 384.839630,93.525467 384.018921,92.982010 
	C384.018921,92.982010 383.993561,92.958244 383.876740,92.351578 
	C383.256775,91.902863 382.636810,91.454155 381.494720,90.594658 
	C369.205444,80.401146 356.078247,71.583847 340.569031,65.443497 
	C335.046570,62.480759 329.818756,58.512806 323.933502,56.787926 
	C314.819031,54.116611 305.305725,52.627232 295.869629,51.280388 
	C285.547119,49.807026 275.134613,48.433186 264.734406,48.195652 
	C255.666855,47.988556 246.480103,48.896492 237.498413,50.292454 
	C229.879028,51.476681 222.477417,54.062084 214.320068,56.024364 
	C213.548798,56.348316 212.777512,56.672272 211.333878,56.995476 
	C210.885452,56.999348 210.437042,57.003220 209.531250,56.566418 
	C206.388809,57.804359 203.121628,58.802441 200.141418,60.352356 
	C197.522217,61.714531 195.224380,63.694645 192.325485,65.397522 
	C192.016907,65.379631 191.718719,65.314293 190.585052,65.100861 
	C187.284348,66.467491 183.774139,67.477348 180.722916,69.268875 
	C172.190384,74.278740 163.469879,79.101845 155.544724,84.972229 
	C148.701431,90.041260 142.820419,96.417671 136.621796,102.329140 
	C136.230789,102.702042 136.774948,104.055527 136.678009,105.514717 
	C136.055023,105.988243 135.432037,106.461769 134.196747,106.984596 
	C133.479340,107.308212 132.761932,107.631821 131.429428,108.248543 
	C127.816376,112.027527 123.960831,115.608154 120.660500,119.642937 
	C117.544556,123.452286 114.844543,127.636147 112.263321,131.840515 
	C108.470421,138.018478 104.590446,144.187347 101.412117,150.685135 
	C98.536011,156.565063 96.456238,162.846237 94.204552,169.015884 
	C92.629189,173.332367 90.839554,177.668045 90.048798,182.154343 
	C88.070358,193.379028 85.825554,204.647125 85.139450,215.985641 
	C84.341026,229.180588 84.280113,242.536087 85.372253,255.699692 
	C86.686218,271.536926 91.913605,286.612335 97.416748,301.491333 
	C98.668137,304.874756 99.352081,308.590454 101.188499,311.611389 
	C106.093864,319.680695 111.256500,327.617859 116.746307,335.300690 
	C122.010201,342.667328 127.248581,350.197845 133.527679,356.655273 
	C140.778809,364.112305 148.894073,370.814636 157.151291,377.173035 
	C161.511063,380.530243 166.970551,382.459320 171.998260,385.012787 
	C171.998260,385.012787 171.964111,385.071442 171.989426,385.838287 
	C172.759781,386.896851 173.299530,388.422150 174.339142,388.935822 
	C179.778946,391.623688 185.584747,393.641022 190.816452,396.664673 
	C200.647491,402.346497 211.582748,404.618195 222.305374,407.435669 
	C227.337692,408.757935 232.781677,408.513519 238.685074,409.053497 
	C239.113998,409.114227 239.542923,409.174957 240.160721,409.958405 
	C241.199997,410.626648 242.213348,411.828033 243.282578,411.880005 
	C253.176208,412.360840 263.080719,412.893433 272.979248,412.844238 
	C276.327057,412.827606 279.666840,411.192841 283.691589,410.191101 
	C284.150818,410.170929 284.610016,410.150757 285.638153,410.600342 
	C294.506409,409.327759 303.392944,408.167908 312.234650,406.731903 
	C316.254639,406.079041 320.206970,404.958221 324.149689,403.899597 
	C326.624847,403.235046 329.134460,402.522156 331.438202,401.429474 
	C337.828217,398.398560 344.218231,395.340057 350.422821,391.952789 
	C357.986542,387.823578 365.568329,383.662201 372.753296,378.924835 
	C378.687164,375.012268 384.060211,370.247986 389.665222,365.840118 
	C390.161652,365.449707 390.673553,364.971863 390.945557,364.419952 
	C393.422852,359.393433 399.256897,357.731201 401.849670,352.177002 
	C404.627075,346.227295 410.458527,341.767731 414.510559,336.325409 
	C417.091156,332.859436 418.859528,328.788696 421.006012,324.350952 
	C421.014618,323.925903 421.023193,323.500885 421.028198,323.011658 
	C421.028198,323.011658 421.091522,323.000519 421.503448,322.612671 
z"/>
<path fill="#292E5A" opacity="1.000000" stroke="none" 
	d="
M442.975555,161.984711 
	C442.974487,161.236877 442.973419,160.489059 442.976013,159.366974 
	C445.327606,164.649109 448.365082,170.128281 449.874268,176.000214 
	C452.674744,186.896362 454.602509,198.017914 456.835999,209.057251 
	C457.094727,210.336182 456.988098,211.689041 456.760681,213.761017 
	C456.315308,225.601654 456.160156,236.688889 456.004944,247.776108 
	C455.998505,250.505325 456.260223,253.266068 455.943542,255.958801 
	C453.167755,279.559418 445.974915,301.905365 434.586395,322.611420 
	C428.574066,333.542603 421.088806,343.926910 412.833893,353.293762 
	C402.833740,364.640869 392.070190,375.606659 380.224243,384.945374 
	C370.367096,392.716248 358.546600,398.038757 347.454559,404.191132 
	C330.754974,413.453857 312.032196,416.408661 293.803467,420.809296 
	C290.688599,421.561279 287.257324,421.002625 283.527283,420.762695 
	C283.055481,419.997772 283.028595,419.519653 283.001709,419.041504 
	C294.974396,416.701782 307.117645,415.001953 318.878662,411.867920 
	C335.303619,407.491028 350.902039,400.793854 365.066162,391.208679 
	C372.119415,386.435638 379.344055,381.758301 385.686981,376.131195 
	C394.487885,368.323547 403.027588,360.094940 410.750031,351.236572 
	C417.388062,343.622162 423.048065,335.080231 428.519531,326.550110 
	C432.141174,320.903839 434.391205,314.395752 437.752991,308.560181 
	C441.796875,301.540619 442.558350,293.396912 445.581696,286.294769 
	C450.016113,275.877899 451.486481,265.177734 453.136292,254.341049 
	C455.319336,240.001785 456.251770,225.553146 453.759003,211.215607 
	C451.227997,196.658020 447.899994,182.237961 444.836182,167.775650 
	C444.539795,166.376480 443.644989,165.104065 443.008209,163.132935 
	C442.984131,162.323593 442.979858,162.154144 442.975555,161.984711 
z"/>
<path fill="#282E59" opacity="1.000000" stroke="none" 
	d="
M282.557037,419.030457 
	C283.028595,419.519653 283.055481,419.997772 283.131104,420.835083 
	C283.179871,421.194275 283.070801,421.175201 282.572357,421.086365 
	C270.662415,421.015930 259.250946,421.034393 247.839462,421.052826 
	C228.317429,420.385376 209.689453,415.698700 192.021545,407.623840 
	C180.522766,402.368530 168.992798,396.867462 158.400360,390.042999 
	C150.016479,384.641479 141.128113,379.285126 135.151611,370.039185 
	C135.008041,369.304657 135.011398,369.135132 135.014771,368.965576 
	C141.205078,373.517120 147.380798,378.088684 153.590881,382.613068 
	C157.718231,385.620117 161.675919,388.945831 166.094528,391.449493 
	C175.385696,396.713989 184.723083,401.991119 194.443436,406.371033 
	C200.984680,409.318512 208.112640,411.212982 215.161301,412.724091 
	C224.562912,414.739624 234.113647,416.142731 243.653809,417.404388 
	C252.315567,418.549896 261.035645,419.375427 269.756622,419.898651 
	C273.842926,420.143829 277.991821,419.345062 282.557037,419.030457 
z"/>
<path fill="#2D335E" opacity="1.000000" stroke="none" 
	d="
M134.997787,368.598877 
	C135.011398,369.135132 135.008041,369.304657 135.004089,369.728394 
	C131.764145,367.260681 128.230194,364.818298 125.336121,361.768677 
	C112.308769,348.041351 101.366325,332.717773 93.424858,315.574463 
	C88.703499,305.382416 85.645287,294.418427 81.873314,283.789429 
	C81.170250,281.808289 80.628670,279.769806 80.113403,277.355591 
	C81.762024,279.755737 83.608597,282.436768 84.804565,285.381989 
	C89.368477,296.621002 92.693413,308.504059 98.437927,319.084076 
	C104.470139,330.193939 112.512283,340.260559 120.136406,350.438232 
	C124.100349,355.729828 129.091629,360.246704 133.530685,365.192688 
	C134.249969,365.994141 134.509018,367.208618 134.997787,368.598877 
z"/>
<path fill="#202955" opacity="1.000000" stroke="none" 
	d="
M316.766296,46.719452 
	C309.895782,45.922619 302.841827,44.167759 295.725861,43.863773 
	C279.054749,43.151608 262.311829,42.293758 245.679718,43.126572 
	C234.262375,43.698265 222.985077,47.025826 211.638901,49.086964 
	C208.473816,49.661926 205.286407,50.114010 202.025955,50.290623 
	C211.994980,47.305523 221.994629,44.422661 232.122910,42.100777 
	C236.829971,41.021690 241.786911,41.032452 247.334839,40.277599 
	C259.614227,40.001564 271.189301,39.997101 282.764404,39.992638 
	C288.827820,40.734631 294.945282,41.187080 300.938416,42.305565 
	C306.216003,43.290508 311.354645,45.020016 316.766296,46.719452 
z"/>
<path fill="#292E5A" opacity="1.000000" stroke="none" 
	d="
M198.717072,50.997086 
	C198.195984,52.314941 197.655228,54.376339 196.373749,55.070705 
	C191.996033,57.442768 187.538986,60.059998 182.778870,61.247879 
	C174.524139,63.307827 168.651688,68.998627 161.991089,73.458817 
	C157.052490,76.765869 152.658264,80.875183 147.893082,84.456192 
	C145.338104,86.376251 142.339188,87.718948 139.847885,89.707237 
	C135.942459,92.824142 132.297195,96.267036 128.270996,99.440262 
	C127.988983,98.845871 127.977715,98.383080 127.966446,97.920280 
	C133.134140,92.503212 137.796814,86.683098 144.369263,82.602081 
	C150.076691,79.058167 154.718323,73.787621 160.448853,70.293472 
	C168.749252,65.232368 177.567917,61.008930 186.243637,56.581230 
	C190.185181,54.569649 194.314041,52.925098 198.717072,50.997086 
z"/>
<path fill="#282E5B" opacity="1.000000" stroke="none" 
	d="
M442.000000,158.017151 
	C438.619354,152.005920 435.469330,145.849731 431.803558,140.017731 
	C426.420868,131.454346 420.793610,123.036713 415.031372,114.722733 
	C411.239105,109.251068 407.026001,104.071091 402.986053,98.400269 
	C407.844269,103.357895 413.052917,108.410004 417.523010,114.047714 
	C427.510071,126.643433 435.879639,140.272263 442.019897,155.908813 
	C442.006042,157.092575 442.003021,157.554855 442.000000,158.017151 
z"/>
<path fill="#252D5A" opacity="1.000000" stroke="none" 
	d="
M391.006897,88.010040 
	C384.458374,83.128479 378.261169,77.657249 371.281555,73.499321 
	C359.945282,66.746048 349.202698,58.645748 335.896179,55.711617 
	C334.335114,55.367405 332.938538,54.277222 331.566895,53.260345 
	C332.444397,52.660023 333.220734,52.332214 333.997101,52.004410 
	C342.191010,55.675331 350.423004,59.263973 358.569946,63.036339 
	C371.003571,68.793610 381.103333,77.931976 391.801331,86.768188 
	C391.551392,87.541969 391.279144,87.776009 391.006897,88.010040 
z"/>
<path fill="#252D5A" opacity="1.000000" stroke="none" 
	d="
M75.679108,210.256882 
	C76.292313,218.123306 76.383232,226.282608 76.947296,234.409042 
	C77.591736,243.693375 78.689842,252.945618 79.498360,262.219879 
	C79.599518,263.380310 79.137077,264.589905 78.618828,265.895081 
	C77.227180,259.951691 75.430191,253.913742 75.229164,247.823151 
	C74.819420,235.408875 75.269806,222.966202 75.679108,210.256882 
z"/>
<path fill="#252D5A" opacity="1.000000" stroke="none" 
	d="
M91.661011,151.137741 
	C90.791237,156.243576 90.482971,161.930725 88.266930,166.738541 
	C83.131615,177.879868 79.890465,189.346695 78.923386,201.546982 
	C78.763092,203.569214 77.591309,205.511276 76.625435,207.693573 
	C76.917747,201.879333 76.608795,195.621597 78.204002,189.894226 
	C81.584381,177.757492 85.946373,165.893555 89.945930,153.931152 
	C90.254974,153.006821 90.878502,152.187653 91.661011,151.137741 
z"/>
<path fill="#252D5A" opacity="1.000000" stroke="none" 
	d="
M127.675674,98.091759 
	C127.977715,98.383080 127.988983,98.845871 128.005005,99.655556 
	C127.585403,101.069756 127.465233,102.502983 126.689613,103.147743 
	C119.015305,109.527328 114.395790,118.151588 109.142380,126.343506 
	C108.312363,127.637787 106.204948,128.112900 104.310364,128.955795 
	C108.984062,121.735222 113.904572,114.428497 119.145264,107.359146 
	C121.569870,104.088509 124.618942,101.280815 127.675674,98.091759 
z"/>
<path fill="#252D5A" opacity="1.000000" stroke="none" 
	d="
M103.620514,129.064758 
	C102.989822,131.779388 102.256760,134.718033 101.018547,137.425644 
	C99.531204,140.678024 97.691994,143.780701 95.848145,146.854004 
	C94.973724,148.311462 93.734703,149.550156 92.303146,150.927185 
	C95.728424,143.706406 99.511414,136.446426 103.620514,129.064758 
z"/>
<path fill="#858CA2" opacity="1.000000" stroke="none" 
	d="
M282.589172,39.611115 
	C271.189301,39.997101 259.614227,40.001564 247.580963,39.993553 
	C247.590668,39.645355 248.059311,39.015701 248.526260,39.016949 
	C259.822266,39.046982 271.118103,39.144360 282.589172,39.611115 
z"/>
<path fill="#202955" opacity="1.000000" stroke="none" 
	d="
M333.764374,51.721066 
	C333.220734,52.332214 332.444397,52.660023 331.335236,52.993355 
	C326.390533,51.241684 321.778625,49.484489 317.075073,47.377632 
	C322.499481,48.497887 328.015564,49.967808 333.764374,51.721066 
z"/>
<path fill="#858CA2" opacity="1.000000" stroke="none" 
	d="
M248.047928,421.447174 
	C259.250946,421.034393 270.662415,421.015930 282.541931,421.040100 
	C282.344238,421.405640 281.678192,422.010284 281.012756,422.009613 
	C270.093903,421.998749 259.175171,421.911560 248.047928,421.447174 
z"/>
<path fill="#555E7D" opacity="1.000000" stroke="none" 
	d="
M456.374878,247.591049 
	C456.160156,236.688889 456.315308,225.601654 456.751923,214.188446 
	C456.937195,225.043625 456.841003,236.224808 456.374878,247.591049 
z"/>
<path fill="#282E5B" opacity="1.000000" stroke="none" 
	d="
M402.830444,97.715836 
	C399.565308,96.413048 394.947632,96.131592 395.015808,90.351814 
	C397.582092,92.440926 400.141327,94.921791 402.830444,97.715836 
z"/>
<path fill="#282E5B" opacity="1.000000" stroke="none" 
	d="
M391.094818,88.356232 
	C391.279144,87.776009 391.551392,87.541969 391.959961,87.071404 
	C392.986145,87.695770 393.876038,88.556664 394.903381,89.696503 
	C393.754791,89.551102 392.468750,89.126762 391.094818,88.356232 
z"/>
<path fill="#2D335E" opacity="1.000000" stroke="none" 
	d="
M78.166588,268.391113 
	C78.490028,268.174164 78.684425,268.362488 78.925369,269.121277 
	C79.025352,270.109802 79.037895,270.570129 79.050446,271.030426 
	C79.042419,271.213348 79.034386,271.396271 79.002594,271.853546 
	C78.678711,271.003357 78.378578,269.878784 78.166588,268.391113 
z"/>
<path fill="#292E5A" opacity="1.000000" stroke="none" 
	d="
M442.202515,158.027695 
	C442.003021,157.554855 442.006042,157.092575 442.016174,156.283173 
	C442.312653,156.440994 442.601990,156.945923 442.850464,157.758347 
	C442.809631,158.065842 442.404999,158.038239 442.202515,158.027695 
z"/>
<path fill="#2D335E" opacity="1.000000" stroke="none" 
	d="
M79.102585,273.248901 
	C79.143570,272.937744 79.571785,272.963226 79.792679,273.240326 
	C80.022034,273.693573 80.030487,273.869690 80.038948,274.045776 
	C80.038948,274.045776 80.038383,274.513031 80.034225,274.746582 
	C79.707245,274.506775 79.384415,274.033447 79.102585,273.248901 
z"/>
<path fill="#292E5A" opacity="1.000000" stroke="none" 
	d="
M200.765594,49.964317 
	C200.775146,50.228638 200.442490,50.478008 199.800323,50.798187 
	C199.801651,50.562450 200.112518,50.255905 200.765594,49.964317 
z"/>
<path fill="#000000" opacity="1.000000" stroke="none" 
	d="
M422.401855,320.024414 
	C422.337646,320.190033 422.273468,320.355621 421.842224,320.905823 
	C421.347260,321.860474 421.219391,322.430511 421.091553,323.000519 
	C421.091522,323.000519 421.028198,323.011658 420.705261,323.061066 
	C419.801392,323.691986 419.220490,324.273468 418.378204,325.069702 
	C412.715790,332.672333 407.434784,340.151733 401.888611,347.429108 
	C390.440857,362.450256 375.495087,373.535950 359.723602,383.427673 
	C351.820068,388.384644 343.255554,392.486938 334.585846,395.969910 
	C324.862396,399.876160 314.752136,402.885132 304.675812,405.823792 
	C298.266724,407.692963 291.613190,408.723816 285.069244,410.130615 
	C284.610016,410.150757 284.150818,410.170929 283.006042,410.121429 
	C281.226410,409.865112 280.111755,409.441772 279.041992,409.534698 
	C275.320007,409.857910 271.601379,410.807343 267.903656,410.706421 
	C258.586609,410.452240 249.281647,409.755219 239.971848,409.235718 
	C239.542923,409.174957 239.113998,409.114227 238.216705,408.724762 
	C230.244446,406.583160 222.610550,405.179871 215.270660,402.850220 
	C206.737961,400.141937 198.394699,396.788849 190.098633,393.398895 
	C183.946732,390.885101 178.001434,387.865662 171.964111,385.071442 
	C171.964111,385.071442 171.998260,385.012787 171.833298,384.709900 
	C160.791550,375.389618 149.525925,366.792419 139.171982,357.210083 
	C132.036728,350.606476 125.734093,342.966248 119.822540,335.207794 
	C109.685448,321.903625 102.035316,307.110962 96.706551,291.256653 
	C93.713417,282.351349 90.328072,273.292175 89.335274,264.063904 
	C87.636581,248.274155 87.284729,232.300262 87.160820,216.397522 
	C87.102295,208.886444 88.022850,201.123947 90.020279,193.895508 
	C93.346939,181.856735 97.786522,170.116882 101.960594,158.323059 
	C107.009941,144.056168 115.794571,131.944214 124.666161,119.916183 
	C127.653954,115.865364 130.828751,111.952484 134.136566,107.869110 
	C134.643158,107.561333 134.794495,107.285881 134.809052,106.935287 
	C135.432037,106.461769 136.055023,105.988243 137.098572,105.101738 
	C144.130753,99.096695 150.351959,92.938591 157.445877,88.045799 
	C167.965973,80.789948 179.104492,74.430725 190.262863,67.616684 
	C190.757721,67.010246 190.969482,66.476936 191.254959,65.761887 
	C191.328659,65.580147 191.430923,65.201492 191.430923,65.201492 
	C191.718719,65.314293 192.016907,65.379631 192.635056,65.649765 
	C197.959732,64.209251 202.974854,62.516506 208.338379,60.868912 
	C209.793671,60.569500 210.900528,60.224930 212.307465,59.830055 
	C213.072433,59.113579 213.537323,58.447411 214.300476,57.942139 
	C216.214813,58.025574 217.873383,58.156086 219.439850,57.835968 
	C227.846283,56.118050 236.154984,53.536064 244.640625,52.692024 
	C254.638580,51.697556 264.782410,52.101128 274.863922,52.030106 
	C292.976593,51.902496 310.312744,55.654694 327.029449,62.555874 
	C331.250122,64.298294 335.644867,65.619125 340.197449,67.381699 
	C353.183929,73.221672 364.723297,80.783981 375.758911,89.191475 
	C379.757721,92.237999 383.910950,95.081894 388.140503,98.320190 
	C390.781494,101.501213 393.350739,104.319199 395.754791,107.271736 
	C401.246216,114.016144 407.234650,120.449585 411.962433,127.699760 
	C418.750275,138.109070 425.268982,148.810120 430.632965,159.995468 
	C435.043976,169.193710 438.287689,179.106506 440.788666,189.020477 
	C443.088165,198.135910 443.706482,207.675461 445.038757,217.494888 
	C445.042358,226.946411 445.072632,235.931213 445.065643,245.363831 
	C443.695831,254.035812 443.007690,262.431854 440.871460,270.441650 
	C438.050354,281.019623 434.161133,291.317871 430.597260,301.690369 
	C428.838348,306.809540 426.779205,311.825500 424.855896,316.888184 
	C424.855896,316.888184 424.994995,316.928101 424.612549,316.920654 
	C423.620667,317.950256 423.011230,318.987335 422.401855,320.024414 
M324.848145,181.497131 
	C324.574066,181.315750 324.299957,181.134384 324.027863,181.002213 
	C324.027863,181.002213 324.047211,180.954605 323.786102,180.374069 
	C322.556549,179.235336 321.327026,178.096619 320.067444,176.948196 
	C320.067444,176.948196 320.041260,176.930634 319.901489,176.422729 
	C319.594818,176.290039 319.288116,176.157349 318.481262,175.839005 
	C318.045624,175.532516 317.609985,175.226044 316.783112,174.359940 
	C315.530365,173.893906 314.277618,173.427872 312.993835,172.985718 
	C312.993835,172.985718 313.031616,172.983276 312.863739,172.520477 
	C312.664246,172.211441 312.381653,172.076584 311.251617,172.003235 
	C304.169952,168.338135 296.483765,169.141098 288.397430,168.345810 
	C277.601349,168.256790 266.805267,168.167786 255.256195,167.995178 
	C252.630905,168.084732 252.178238,169.400284 254.085800,170.920441 
	C256.894653,173.158859 260.028809,174.989120 263.045105,177.651367 
	C263.021149,178.089447 262.997162,178.527527 262.356903,179.546478 
	C262.191132,185.319901 261.953766,191.092987 261.928436,196.867035 
	C261.924103,197.854797 262.600342,199.084137 263.349182,199.793106 
	C265.865662,202.175552 277.626648,201.275497 280.477295,198.517944 
	C280.135895,198.008469 279.849884,197.082352 279.413361,197.004929 
	C272.542572,195.786087 274.056122,190.477570 273.989105,185.982605 
	C273.934845,182.343582 274.007446,178.702652 274.954651,175.034988 
	C283.261078,175.002151 291.567474,174.969330 300.662201,174.929947 
	C305.408478,177.318359 310.154785,179.706787 314.825836,182.158142 
	C314.825836,182.158142 314.826935,182.256226 314.751282,182.983856 
	C317.137054,186.839951 319.913025,190.512833 321.827606,194.590164 
	C325.849274,203.154724 326.678955,212.399994 325.992859,221.703476 
	C324.723694,238.913162 317.483002,249.853378 302.938782,255.948822 
	C297.508362,258.224670 291.640839,259.457550 285.497162,261.083832 
	C285.497162,261.083832 285.015808,261.116608 284.213745,261.046143 
	C283.144592,261.104706 282.075439,261.163300 280.154968,261.107727 
	C274.260132,261.830750 268.064514,261.502197 263.002014,265.135315 
	C263.097839,265.846680 263.193695,266.558044 263.289520,267.269409 
	C270.189209,266.826019 277.088867,266.382599 284.662323,265.961151 
	C285.107666,265.903229 285.552979,265.845306 286.867554,265.906494 
	C288.913177,265.867218 290.958771,265.827942 293.689117,265.613403 
	C303.823730,264.277344 313.520508,262.003540 321.741547,255.230286 
	C330.622528,247.913284 337.832733,239.378357 339.788361,227.897202 
	C341.280029,219.139862 341.210236,209.939362 337.547241,201.591614 
	C335.231110,196.313156 331.420654,191.690384 328.224457,186.138260 
	C327.811951,185.433670 327.399414,184.729065 326.802765,183.598465 
	C326.636261,183.328735 326.414581,183.116653 325.934204,182.470291 
	C325.637878,182.293106 325.341522,182.115906 324.994629,181.989349 
	C324.994629,181.989349 325.055664,181.953949 324.848145,181.497131 
M263.129944,230.469406 
	C263.129944,230.469406 263.318695,230.925278 263.207397,231.624573 
	C263.153412,232.093842 263.099396,232.563110 262.356781,233.028320 
	C262.130524,233.066910 261.904236,233.105484 260.787445,233.074860 
	C251.897827,233.070389 243.008194,233.065933 233.340363,232.919342 
	C229.708893,230.878510 225.441467,229.492157 222.553680,226.686005 
	C208.423553,212.955338 208.568909,195.515091 210.929352,177.764587 
	C211.324509,174.793030 212.778976,171.869476 214.168518,169.139862 
	C219.049805,159.551025 227.398895,154.021896 237.744919,149.975006 
	C239.135345,149.254120 240.525787,148.533218 242.539795,148.082169 
	C244.354477,148.009872 246.169144,147.937561 248.721985,147.958801 
	C256.406586,146.561142 264.726776,147.802704 271.713104,143.505356 
	C271.606934,142.879929 271.500763,142.254486 271.394592,141.629059 
	C264.290710,142.334595 257.186829,143.040131 249.339783,143.479172 
	C242.404816,144.012634 235.291077,143.782166 228.597778,145.348434 
	C224.143387,146.390778 220.289154,149.997803 215.697861,152.100586 
	C215.102203,152.704422 214.506546,153.308258 213.205170,153.944122 
	C203.971054,160.292374 198.475037,169.422745 196.083939,179.958282 
	C193.739502,190.288269 194.367737,200.948151 199.137177,210.666946 
	C201.880829,216.257751 203.620834,222.871048 210.089539,226.619400 
	C210.935287,227.561401 211.781036,228.503418 212.871124,230.071198 
	C215.249496,231.708862 217.627884,233.346512 220.415756,235.571671 
	C225.269028,237.043594 230.122314,238.515518 235.318619,240.805420 
	C240.305084,240.870285 245.291412,240.975235 250.278030,240.991333 
	C259.597656,241.021423 268.917999,241.046997 278.236237,240.930115 
	C279.212402,240.917877 280.296753,240.061630 281.061615,239.319458 
	C281.253418,239.133347 280.400940,237.871048 279.320129,236.991043 
	C277.537109,236.007507 275.754089,235.023987 273.992767,234.017670 
	C273.992767,234.017670 273.982910,234.016281 273.984955,233.358292 
	C273.934204,232.924255 273.883453,232.490204 273.854248,231.531357 
	C273.834229,231.357437 273.814178,231.183517 273.912720,230.078842 
	C273.936920,226.953049 274.219910,223.802002 273.917969,220.708038 
	C273.563446,217.075668 272.700745,213.492920 271.856995,209.491806 
	C271.679657,209.244247 271.452332,209.057526 271.107849,208.474945 
	C271.107849,208.474945 270.959625,208.037811 270.723572,207.174622 
	C262.464417,207.174622 254.205261,207.174622 245.946106,207.174622 
	C245.939926,207.663834 245.933746,208.153046 245.927551,208.642258 
	C247.296967,208.807892 248.666367,208.973526 250.577026,209.557068 
	C253.649307,210.735367 256.721588,211.913666 260.015991,213.679184 
	C260.716919,214.448486 261.417847,215.217804 262.022339,216.895111 
	C262.038971,219.944107 262.055573,222.993088 261.998383,226.766357 
	C262.340515,227.833969 262.682648,228.901581 263.003937,229.977905 
	C263.003937,229.977905 263.018158,229.988846 263.129944,230.469406 
M234.482117,283.091705 
	C233.597229,283.745605 232.787781,284.804321 231.814835,284.985596 
	C226.725967,285.933777 228.529404,287.894073 230.646957,290.733429 
	C230.646957,293.724731 230.646957,296.716064 230.646957,299.707367 
	C230.979919,299.954437 231.312881,300.201508 231.645844,300.448547 
	C232.415131,299.487030 233.715561,298.594452 233.851044,297.550629 
	C234.212997,294.761963 234.074677,291.908295 234.804596,289.034882 
	C235.582581,288.729523 236.360565,288.424164 237.689758,288.418976 
	C238.645508,292.274475 239.601257,296.130005 240.613266,300.212463 
	C242.918243,300.012085 244.923294,299.837799 246.928329,299.663513 
	C243.152679,296.663666 241.665482,293.651215 243.653519,289.467712 
	C245.002731,289.160065 246.351944,288.852448 249.018478,288.244446 
	C246.311508,286.754425 243.771729,286.215363 243.341827,284.956085 
	C242.131821,281.411591 240.053284,282.509277 237.167938,283.119171 
	C236.500763,283.129547 235.833588,283.139923 234.482117,283.091705 
M335.152832,293.820709 
	C335.219208,296.262543 333.817383,299.523438 337.895813,299.944397 
	C339.617523,300.122101 341.436462,299.358124 342.604614,299.137024 
	C340.585205,296.491638 339.249878,294.742401 338.009705,292.197693 
	C338.009705,288.864990 338.009705,285.532288 338.009705,280.884979 
	C335.165497,283.369812 333.582336,284.752930 331.689301,285.473236 
	C330.663025,281.644196 327.685822,280.769409 324.422516,281.370789 
	C322.852264,281.660156 320.418793,283.253815 320.308838,284.436523 
	C319.846436,289.410736 320.113373,294.452728 320.113373,299.469910 
	C320.715576,299.632660 321.317749,299.795410 321.919952,299.958160 
	C322.947693,297.772827 323.975433,295.587463 325.128082,293.136536 
	C328.948822,293.627441 331.726349,291.908417 333.350830,288.564667 
	C334.012939,290.033203 334.675079,291.501740 335.152832,293.820709 
M383.003998,291.688171 
	C383.277588,294.129700 382.950470,296.912781 384.066437,298.875244 
	C384.665924,299.929443 387.743652,299.574310 388.849884,299.732819 
	C388.014557,295.785339 387.397980,292.871643 387.255981,289.440887 
	C388.328857,289.148010 389.401733,288.855164 390.595093,288.529388 
	C389.333160,287.340302 388.141632,286.389923 387.168976,285.252411 
	C386.202484,284.122131 385.456085,282.803680 384.613159,281.567749 
	C383.943604,281.795288 383.274048,282.022797 382.604492,282.250305 
	C382.772064,285.149231 382.939636,288.048157 383.003998,291.688171 
M400.248230,285.098511 
	C395.482941,285.734467 391.514191,289.584778 392.200439,293.504272 
	C392.826996,297.082825 393.436981,301.353027 399.916351,300.030914 
	C401.475159,300.030914 403.033997,300.030914 404.935425,300.030914 
	C404.935425,294.261963 405.107727,289.170441 404.808899,284.106720 
	C404.738098,282.906921 403.086243,281.800446 402.161652,280.651031 
	C401.785278,280.931396 401.408936,281.211761 401.032562,281.492126 
	C401.032562,282.719055 401.032562,283.946014 400.248230,285.098511 
M298.908112,293.941254 
	C300.907196,293.933960 302.930786,294.108337 304.895020,293.843018 
	C305.880646,293.709839 306.758209,292.776276 307.684631,292.204712 
	C306.035461,289.783173 304.883911,286.341980 302.597534,285.226196 
	C300.299316,284.104645 295.977051,283.773773 295.270782,289.395538 
	C295.156555,291.524963 294.424103,293.884979 295.107422,295.716919 
	C295.750397,297.440796 297.794037,299.647217 299.386414,299.788971 
	C302.141907,300.034302 306.150360,301.705353 307.915009,296.861786 
	C304.400360,295.340546 299.878632,299.020752 298.908112,293.941254 
M131.008667,296.270172 
	C131.375549,297.452179 131.374008,299.225708 132.168777,299.720673 
	C137.540192,303.065948 146.931808,297.571075 146.959259,291.216156 
	C146.991394,283.777252 140.262970,280.218140 131.008911,283.054199 
	C131.008911,287.075134 131.008911,291.199829 131.008667,296.270172 
M178.409103,284.213654 
	C182.887115,290.348358 182.797256,293.892700 178.034943,296.344574 
	C175.888199,297.449890 174.052582,297.433411 173.997360,294.351593 
	C173.947052,291.543182 173.568451,288.576874 174.308243,285.954895 
	C175.547256,281.563690 173.199356,282.047089 170.000656,282.257874 
	C170.000656,285.772125 169.969711,289.074097 170.006866,292.375336 
	C170.094055,300.123260 170.576935,300.544281 178.189560,299.986053 
	C182.108063,299.698761 184.661652,297.374420 185.778275,293.962555 
	C187.023468,290.157867 186.217697,286.252655 182.991562,283.704010 
	C182.023758,282.939484 179.393005,280.299194 178.409103,284.213654 
M266.415588,289.808716 
	C266.555115,288.700714 266.694672,287.592743 266.834198,286.484741 
	C266.440491,286.209961 266.046783,285.935181 265.653076,285.660400 
	C264.410858,287.226166 263.168610,288.791931 261.800964,290.515778 
	C260.890961,288.599609 259.873871,286.457916 258.856812,284.316223 
	C258.199432,285.004852 257.542053,285.693451 256.884705,286.382080 
	C256.053558,287.919373 255.222427,289.456665 254.143143,291.452911 
	C252.805450,289.022858 251.934433,287.440582 250.832626,285.439026 
	C247.541748,291.140228 250.677994,299.461884 255.473129,299.790192 
	C256.071869,297.826385 256.670593,295.862579 257.423523,293.393005 
	C258.324829,295.005524 258.853577,296.224823 259.628326,297.259979 
	C260.388031,298.274963 261.397980,299.102600 262.298096,300.012482 
	C263.157471,298.932678 264.360016,297.975128 264.798279,296.745270 
	C265.510223,294.747192 265.721680,292.570770 266.415588,289.808716 
M205.654373,281.279175 
	C201.951004,281.039917 198.820007,281.349792 197.980270,286.083496 
	C197.096008,291.068115 200.032227,291.812256 203.769302,292.452820 
	C205.284851,292.712616 206.638184,293.918854 208.065323,294.694397 
	C207.908569,295.323212 207.751801,295.951996 207.595047,296.580780 
	C204.466858,296.359467 201.338684,296.138184 198.210510,295.916870 
	C197.946045,296.240021 197.681580,296.563202 197.417099,296.886353 
	C198.454727,297.835205 199.380798,299.393768 200.552765,299.608154 
	C203.131516,300.079895 205.914917,300.279175 208.453827,299.776581 
	C209.785751,299.512878 211.421356,297.707062 211.801361,296.296387 
	C212.874771,292.311493 210.757874,290.183655 205.855545,288.922363 
	C204.463638,288.564240 203.373535,287.032990 202.145035,286.039734 
	C203.684601,285.763489 205.239746,285.205078 206.759399,285.289093 
	C208.329681,285.375854 209.865463,286.086914 211.416351,286.524841 
	C211.715317,285.836151 212.014282,285.147491 212.313248,284.458801 
	C210.298782,283.524780 208.284302,282.590790 205.654373,281.279175 
M275.721680,285.912994 
	C271.844757,284.350769 269.266388,284.370239 270.804688,289.781158 
	C271.000580,290.470154 270.677673,291.392883 270.383118,292.121674 
	C267.620483,298.956604 268.878235,300.687347 276.292480,300.138641 
	C277.724701,300.032654 279.150940,299.845886 280.941376,299.658569 
	C280.941376,296.522644 281.490845,293.557190 280.757233,290.953186 
	C280.226990,289.071075 277.992218,287.669159 275.721680,285.912994 
M354.612579,296.277466 
	C352.521179,296.277466 350.429749,296.277466 348.338348,296.277466 
	C348.354004,295.624725 348.369629,294.971985 348.385284,294.319275 
	C349.763306,294.188110 351.255646,294.344543 352.490784,293.853760 
	C354.077301,293.223358 355.457306,292.073120 356.926270,291.146820 
	C355.382446,289.223206 353.783417,285.676392 352.306732,285.726624 
	C349.552307,285.820312 345.457336,287.384583 344.533813,289.485596 
	C343.510895,291.812836 344.444977,296.502991 346.310822,298.183655 
	C348.260712,299.940033 352.333191,299.339874 355.477814,299.769867 
	C355.447662,298.560791 355.417511,297.351746 354.612579,296.277466 
M215.420319,288.111359 
	C211.948318,295.464691 214.860046,300.768097 222.283173,299.878296 
	C224.284332,299.638397 227.089996,297.210236 227.598892,295.278687 
	C228.650681,291.286774 226.483978,287.658875 222.831329,285.875031 
	C220.643829,284.806702 217.316971,283.265839 215.420319,288.111359 
M368.960297,286.896210 
	C368.946991,289.895660 368.694550,292.921906 369.026398,295.882690 
	C369.180695,297.259186 370.329895,299.503662 371.269653,299.635681 
	C374.567413,300.099060 377.970154,299.815491 381.333038,299.815491 
	C381.392944,299.034210 381.452881,298.252899 381.512817,297.471619 
	C378.818634,297.156677 376.124481,296.841705 373.335052,296.515625 
	C373.046204,291.265930 372.775696,286.349670 372.505188,281.433411 
	C371.850098,281.389954 371.195038,281.346497 370.539978,281.303040 
	C370.019196,282.874298 369.498413,284.445587 368.960297,286.896210 
M165.398682,292.655243 
	C163.798340,291.825775 162.197983,290.996277 160.789688,290.266327 
	C159.918579,287.884766 159.047516,285.503296 158.176437,283.121857 
	C157.817642,283.217407 157.458832,283.312927 157.100037,283.408478 
	C156.789444,285.535187 156.478851,287.661865 156.187897,289.654053 
	C154.323959,290.478851 152.522781,291.275879 150.721588,292.072906 
	C157.311066,291.071136 156.335663,296.856354 158.527145,301.337585 
	C159.496948,297.752991 160.095490,295.540649 160.721298,293.227478 
	C162.089966,293.149963 163.403641,293.075531 165.398682,292.655243 
M288.027893,298.209595 
	C286.039581,292.589813 291.004333,289.800385 294.436920,285.707306 
	C291.600739,285.833893 289.991577,285.539001 288.707062,286.053955 
	C287.023346,286.728943 284.275238,288.068848 284.295074,289.077332 
	C284.366882,292.728119 282.164520,297.083282 286.456696,299.868103 
	C286.685364,300.016449 287.444305,299.347473 288.027893,298.209595 
z"/>
<path fill="#282E59" opacity="1.000000" stroke="none" 
	d="
M133.918076,107.976555 
	C130.828751,111.952484 127.653954,115.865364 124.666161,119.916183 
	C115.794571,131.944214 107.009941,144.056168 101.960594,158.323059 
	C97.786522,170.116882 93.346939,181.856735 90.020279,193.895508 
	C88.022850,201.123947 87.102295,208.886444 87.160820,216.397522 
	C87.284729,232.300262 87.636581,248.274155 89.335274,264.063904 
	C90.328072,273.292175 93.713417,282.351349 96.706551,291.256653 
	C102.035316,307.110962 109.685448,321.903625 119.822540,335.207794 
	C125.734093,342.966248 132.036728,350.606476 139.171982,357.210083 
	C149.525925,366.792419 160.791550,375.389618 171.800934,384.720093 
	C166.970551,382.459320 161.511063,380.530243 157.151291,377.173035 
	C148.894073,370.814636 140.778809,364.112305 133.527679,356.655273 
	C127.248581,350.197845 122.010201,342.667328 116.746307,335.300690 
	C111.256500,327.617859 106.093864,319.680695 101.188499,311.611389 
	C99.352081,308.590454 98.668137,304.874756 97.416748,301.491333 
	C91.913605,286.612335 86.686218,271.536926 85.372253,255.699692 
	C84.280113,242.536087 84.341026,229.180588 85.139450,215.985641 
	C85.825554,204.647125 88.070358,193.379028 90.048798,182.154343 
	C90.839554,177.668045 92.629189,173.332367 94.204552,169.015884 
	C96.456238,162.846237 98.536011,156.565063 101.412117,150.685135 
	C104.590446,144.187347 108.470421,138.018478 112.263321,131.840515 
	C114.844543,127.636147 117.544556,123.452286 120.660500,119.642937 
	C123.960831,115.608154 127.816376,112.027527 132.048676,108.111977 
	C133.084641,107.975792 133.501358,107.976173 133.918076,107.976555 
z"/>
<path fill="#282E5B" opacity="1.000000" stroke="none" 
	d="
M445.065430,217.028168 
	C443.706482,207.675461 443.088165,198.135910 440.788666,189.020477 
	C438.287689,179.106506 435.043976,169.193710 430.632965,159.995468 
	C425.268982,148.810120 418.750275,138.109070 411.962433,127.699760 
	C407.234650,120.449585 401.246216,114.016144 395.754791,107.271736 
	C393.350739,104.319199 390.781494,101.501213 388.151733,98.063934 
	C388.026001,97.335091 388.035767,97.164452 388.045563,96.993805 
	C390.816254,99.152382 393.896149,101.015816 396.295380,103.529007 
	C401.832489,109.329185 407.628937,115.028084 412.228973,121.539001 
	C417.816162,129.447220 422.383301,138.089996 427.195435,146.526932 
	C430.311432,151.990067 433.312622,157.545670 435.920471,163.262711 
	C437.873169,167.543579 439.459961,172.061386 440.611420,176.624649 
	C444.180756,190.770294 446.770966,205.073853 447.032867,219.742920 
	C447.374512,238.878281 447.316223,257.989929 441.999664,276.572235 
	C439.835052,284.137939 436.883423,291.491211 434.048492,298.848114 
	C431.998260,304.168671 429.576965,309.347900 427.251526,314.559113 
	C426.877380,315.397522 426.138916,316.073334 425.212372,316.856262 
	C426.779205,311.825500 428.838348,306.809540 430.597260,301.690369 
	C434.161133,291.317871 438.050354,281.019623 440.871460,270.441650 
	C443.007690,262.431854 443.695831,254.035812 445.332123,245.057114 
	C445.735809,241.198212 445.992798,238.089249 445.902161,234.990448 
	C445.726868,228.999985 445.355499,223.015274 445.065430,217.028168 
z"/>
<path fill="#252D5A" opacity="1.000000" stroke="none" 
	d="
M285.353699,410.365479 
	C291.613190,408.723816 298.266724,407.692963 304.675812,405.823792 
	C314.752136,402.885132 324.862396,399.876160 334.585846,395.969910 
	C343.255554,392.486938 351.820068,388.384644 359.723602,383.427673 
	C375.495087,373.535950 390.440857,362.450256 401.888611,347.429108 
	C407.434784,340.151733 412.715790,332.672333 418.771362,325.109039 
	C419.947998,324.952179 420.470062,324.970642 420.992126,324.989136 
	C418.859528,328.788696 417.091156,332.859436 414.510559,336.325409 
	C410.458527,341.767731 404.627075,346.227295 401.849670,352.177002 
	C399.256897,357.731201 393.422852,359.393433 390.945557,364.419952 
	C390.673553,364.971863 390.161652,365.449707 389.665222,365.840118 
	C384.060211,370.247986 378.687164,375.012268 372.753296,378.924835 
	C365.568329,383.662201 357.986542,387.823578 350.422821,391.952789 
	C344.218231,395.340057 337.828217,398.398560 331.438202,401.429474 
	C329.134460,402.522156 326.624847,403.235046 324.149689,403.899597 
	C320.206970,404.958221 316.254639,406.079041 312.234650,406.731903 
	C303.392944,408.167908 294.506409,409.327759 285.353699,410.365479 
z"/>
<path fill="#282E59" opacity="1.000000" stroke="none" 
	d="
M339.959595,67.133698 
	C335.644867,65.619125 331.250122,64.298294 327.029449,62.555874 
	C310.312744,55.654694 292.976593,51.902496 274.863922,52.030106 
	C264.782410,52.101128 254.638580,51.697556 244.640625,52.692024 
	C236.154984,53.536064 227.846283,56.118050 219.439850,57.835968 
	C217.873383,58.156086 216.214813,58.025574 214.427933,57.727882 
	C214.497894,56.910988 214.738663,56.469234 214.979431,56.027481 
	C222.477417,54.062084 229.879028,51.476681 237.498413,50.292454 
	C246.480103,48.896492 255.666855,47.988556 264.734406,48.195652 
	C275.134613,48.433186 285.547119,49.807026 295.869629,51.280388 
	C305.305725,52.627232 314.819031,54.116611 323.933502,56.787926 
	C329.818756,58.512806 335.046570,62.480759 340.570862,65.850296 
	C340.368317,66.549294 340.163940,66.841499 339.959595,67.133698 
z"/>
<path fill="#2D335E" opacity="1.000000" stroke="none" 
	d="
M191.007996,65.151176 
	C191.430923,65.201492 191.328659,65.580147 191.011627,65.908180 
	C190.456314,66.720749 190.218033,67.205284 189.979767,67.689819 
	C179.104492,74.430725 167.965973,80.789948 157.445877,88.045799 
	C150.351959,92.938591 144.130753,99.096695 137.201599,104.820786 
	C136.774948,104.055527 136.230789,102.702042 136.621796,102.329140 
	C142.820419,96.417671 148.701431,90.041260 155.544724,84.972229 
	C163.469879,79.101845 172.190384,74.278740 180.722916,69.268875 
	C183.774139,67.477348 187.284348,66.467491 191.007996,65.151176 
z"/>
<path fill="#252D5A" opacity="1.000000" stroke="none" 
	d="
M171.976776,385.454865 
	C178.001434,387.865662 183.946732,390.885101 190.098633,393.398895 
	C198.394699,396.788849 206.737961,400.141937 215.270660,402.850220 
	C222.610550,405.179871 230.244446,406.583160 237.893723,408.687561 
	C232.781677,408.513519 227.337692,408.757935 222.305374,407.435669 
	C211.582748,404.618195 200.647491,402.346497 190.816452,396.664673 
	C185.584747,393.641022 179.778946,391.623688 174.339142,388.935822 
	C173.299530,388.422150 172.759781,386.896851 171.976776,385.454865 
z"/>
<path fill="#202955" opacity="1.000000" stroke="none" 
	d="
M340.197449,67.381699 
	C340.163940,66.841499 340.368317,66.549294 340.793396,66.102432 
	C356.078247,71.583847 369.205444,80.401146 381.883240,91.056145 
	C382.845734,91.997833 383.419647,92.478035 383.993561,92.958237 
	C383.993561,92.958244 384.018921,92.982010 384.157898,93.254181 
	C384.881134,94.014961 385.465332,94.503563 386.049561,94.992165 
	C386.189667,95.293541 386.386719,95.551407 386.957031,96.096344 
	C387.463867,96.668404 387.702118,96.845619 387.988190,96.958565 
	C387.988190,96.958565 388.013367,96.979836 388.029480,96.986824 
	C388.035767,97.164452 388.026001,97.335091 388.004974,97.761978 
	C383.910950,95.081894 379.757721,92.237999 375.758911,89.191475 
	C364.723297,80.783981 353.183929,73.221672 340.197449,67.381699 
z"/>
<path fill="#252D5A" opacity="1.000000" stroke="none" 
	d="
M240.066284,409.597046 
	C249.281647,409.755219 258.586609,410.452240 267.903656,410.706421 
	C271.601379,410.807343 275.320007,409.857910 279.041992,409.534698 
	C280.111755,409.441772 281.226410,409.865112 282.665375,410.174683 
	C279.666840,411.192841 276.327057,412.827606 272.979248,412.844238 
	C263.080719,412.893433 253.176208,412.360840 243.282578,411.880005 
	C242.213348,411.828033 241.199997,410.626648 240.066284,409.597046 
z"/>
<path fill="#2D335E" opacity="1.000000" stroke="none" 
	d="
M207.989960,60.823757 
	C202.974854,62.516506 197.959732,64.209251 192.864609,65.651917 
	C195.224380,63.694645 197.522217,61.714531 200.141418,60.352356 
	C203.121628,58.802441 206.388809,57.804359 209.613434,57.065163 
	C209.127060,58.650524 208.558517,59.737137 207.989960,60.823757 
z"/>
<path fill="#282E59" opacity="1.000000" stroke="none" 
	d="
M208.338379,60.868912 
	C208.558517,59.737137 209.127060,58.650524 209.842117,57.285500 
	C210.437042,57.003220 210.885452,56.999348 211.670013,57.356880 
	C212.006561,58.438972 212.006973,59.159668 212.007385,59.880363 
	C210.900528,60.224930 209.793671,60.569500 208.338379,60.868912 
z"/>
<path fill="#2D335E" opacity="1.000000" stroke="none" 
	d="
M212.307465,59.830055 
	C212.006973,59.159668 212.006561,58.438972 212.006195,57.357254 
	C212.777512,56.672272 213.548798,56.348316 214.649750,56.025925 
	C214.738663,56.469234 214.497894,56.910988 214.129669,57.566990 
	C213.537323,58.447411 213.072433,59.113579 212.307465,59.830055 
z"/>
<path fill="#282E5B" opacity="1.000000" stroke="none" 
	d="
M422.735199,319.994751 
	C423.011230,318.987335 423.620667,317.950256 424.550262,316.883728 
	C424.269836,317.891235 423.669189,318.928131 422.735199,319.994751 
z"/>
<path fill="#282E5B" opacity="1.000000" stroke="none" 
	d="
M386.238647,94.779953 
	C385.465332,94.503563 384.881134,94.014961 384.171234,93.265350 
	C384.839630,93.525467 385.633698,94.046600 386.238647,94.779953 
z"/>
<path fill="#282E5B" opacity="1.000000" stroke="none" 
	d="
M420.999084,324.670044 
	C420.470062,324.970642 419.947998,324.952179 419.032776,324.894348 
	C419.220490,324.273468 419.801392,323.691986 420.707031,323.093140 
	C421.023193,323.500885 421.014618,323.925903 420.999084,324.670044 
z"/>
<path fill="#2D335E" opacity="1.000000" stroke="none" 
	d="
M134.136566,107.869110 
	C133.501358,107.976173 133.084641,107.975792 132.356232,107.965424 
	C132.761932,107.631821 133.479340,107.308212 134.502899,106.959946 
	C134.794495,107.285881 134.643158,107.561333 134.136566,107.869110 
z"/>
<path fill="#282E5B" opacity="1.000000" stroke="none" 
	d="
M383.935150,92.654907 
	C383.419647,92.478035 382.845734,91.997833 382.144348,91.261536 
	C382.636810,91.454155 383.256775,91.902863 383.935150,92.654907 
z"/>
<path fill="#252D5A" opacity="1.000000" stroke="none" 
	d="
M79.243958,270.860382 
	C79.037895,270.570129 79.025352,270.109802 79.019012,269.303589 
	C79.162636,269.535248 79.300049,270.112793 79.243958,270.860382 
z"/>
<path fill="#282E5B" opacity="1.000000" stroke="none" 
	d="
M421.297485,322.806580 
	C421.219391,322.430511 421.347260,321.860474 421.739136,321.151489 
	C421.836609,321.545868 421.670044,322.079285 421.297485,322.806580 
z"/>
<path fill="#282E5B" opacity="1.000000" stroke="none" 
	d="
M387.874481,96.764420 
	C387.702118,96.845619 387.463867,96.668404 387.159515,96.234253 
	C387.333893,96.150391 387.572266,96.326630 387.874481,96.764420 
z"/>
<path fill="#252D5A" opacity="1.000000" stroke="none" 
	d="
M80.175568,273.933594 
	C80.030487,273.869690 80.022034,273.693573 80.006790,273.252930 
	C80.104073,273.266113 80.208130,273.543762 80.175568,273.933594 
z"/>
<path fill="#282E5B" opacity="1.000000" stroke="none" 
	d="
M442.839539,162.088043 
	C442.979858,162.154144 442.984131,162.323593 442.987488,162.747284 
	C442.892181,162.731461 442.797852,162.461426 442.839539,162.088043 
z"/>
<path fill="#1F2C5B" opacity="1.000000" stroke="none" 
	d="
M247.983826,147.865250 
	C246.169144,147.937561 244.354477,148.009872 241.991364,147.761612 
	C239.982544,148.337036 238.522186,149.233017 237.061813,150.128998 
	C227.398895,154.021896 219.049805,159.551025 214.168518,169.139862 
	C212.778976,171.869476 211.324509,174.793030 210.929352,177.764587 
	C208.568909,195.515091 208.423553,212.955338 222.553680,226.686005 
	C225.441467,229.492157 229.708893,230.878510 233.933929,233.362610 
	C243.577621,233.585266 252.627777,233.364670 261.677917,233.144073 
	C261.904236,233.105484 262.130524,233.066910 262.946198,233.290436 
	C264.060120,236.957626 266.230469,237.996155 269.446045,238.045349 
	C272.365967,238.089996 273.661438,236.729736 273.971069,234.040466 
	C275.754089,235.023987 277.537109,236.007507 279.631073,237.472931 
	C278.611450,238.620499 277.287231,239.849747 275.949341,239.864838 
	C262.292694,240.018936 248.633835,239.975571 234.975586,239.987427 
	C230.122314,238.515518 225.269028,237.043594 220.301361,235.012085 
	C218.787537,232.645554 217.388107,230.838608 216.285339,228.855072 
	C216.511978,227.176697 216.873306,225.479004 216.295822,224.207748 
	C214.027023,219.213287 210.946503,214.530899 209.174316,209.385788 
	C207.803528,205.406021 208.028717,200.894760 207.379349,196.644989 
	C204.986313,180.983627 208.874390,167.317459 220.400406,156.213776 
	C222.826889,153.876205 225.923584,152.234314 228.711456,150.271881 
	C228.339020,149.703033 227.966568,149.134186 227.594131,148.565338 
	C225.340622,149.930328 223.159607,151.441711 220.807083,152.606781 
	C219.336334,153.335144 217.607132,153.541641 216.037415,153.601013 
	C216.109390,152.965439 216.137833,152.711166 216.166290,152.456909 
	C220.289154,149.997803 224.143387,146.390778 228.597778,145.348434 
	C235.291077,143.782166 242.404816,144.012634 249.639221,143.956619 
	C249.287033,145.577789 248.635422,146.721512 247.983826,147.865250 
z"/>
<path fill="#1E2957" opacity="1.000000" stroke="none" 
	d="
M328.280396,186.773529 
	C331.420654,191.690384 335.231110,196.313156 337.547241,201.591614 
	C341.210236,209.939362 341.280029,219.139862 339.788361,227.897202 
	C337.832733,239.378357 330.622528,247.913284 321.741547,255.230286 
	C313.520508,262.003540 303.823730,264.277344 293.227936,265.364197 
	C290.325714,263.477905 287.997742,262.978912 285.998322,265.787354 
	C285.552979,265.845306 285.107666,265.903229 284.081482,265.690125 
	C280.938507,264.846008 278.376404,264.272888 276.117920,263.767700 
	C277.608215,262.991547 279.307251,262.106720 281.006287,261.221863 
	C282.075439,261.163300 283.144592,261.104706 284.709229,261.201965 
	C285.204742,261.357819 285.622528,261.440765 285.622528,261.440765 
	C285.622528,261.440765 285.972626,261.165985 285.972626,261.165985 
	C291.640839,259.457550 297.508362,258.224670 302.938782,255.948822 
	C317.483002,249.853378 324.723694,238.913162 325.992859,221.703476 
	C326.678955,212.399994 325.849274,203.154724 321.827606,194.590164 
	C319.913025,190.512833 317.137054,186.839951 315.130676,182.584076 
	C316.998749,183.124069 318.487427,184.063828 320.127319,185.315582 
	C334.313873,214.832321 332.981415,240.674179 303.059570,260.683380 
	C311.353302,258.789154 317.684235,255.317337 323.271637,249.976425 
	C330.297852,243.260208 335.146576,235.536804 336.981873,225.974792 
	C339.669922,211.969910 334.085114,199.925308 327.975739,187.761047 
	C327.983856,187.513062 327.983002,187.016830 328.055908,186.954208 
	C328.128784,186.891586 328.280396,186.773529 328.280396,186.773529 
z"/>
<path fill="#18295E" opacity="1.000000" stroke="none" 
	d="
M319.976105,185.003586 
	C318.487427,184.063828 316.998749,183.124069 315.168518,182.220261 
	C314.826935,182.256226 314.825836,182.158142 314.755859,181.802704 
	C314.110474,180.651825 313.634003,179.756088 312.944702,179.076096 
	C304.207397,170.457031 292.925110,173.203262 282.472992,172.451370 
	C280.026428,172.275375 277.490723,173.338806 274.744568,173.893631 
	C274.320984,173.968857 274.148895,173.982437 273.683563,174.170380 
	C272.594391,175.897308 271.798492,177.449875 270.713165,178.838104 
	C270.609985,175.789551 270.796234,172.905350 271.412659,170.013458 
	C274.226654,169.664780 276.610474,169.323807 279.447815,168.976288 
	C282.910095,168.974121 285.918884,168.978516 288.927643,168.982895 
	C296.483765,169.141098 304.169952,168.338135 311.763489,172.245819 
	C312.484344,172.719162 312.736420,172.884125 313.031616,172.983276 
	C313.031616,172.983276 312.993835,172.985718 313.090027,173.332825 
	C314.515564,174.093155 315.844971,174.506363 317.174347,174.919571 
	C317.609985,175.226044 318.045624,175.532516 318.864868,176.129089 
	C319.465454,176.662949 319.729706,176.833435 320.041260,176.930634 
	C320.041260,176.930634 320.067444,176.948196 320.065338,177.329376 
	C321.391235,178.791901 322.719238,179.873245 324.047211,180.954590 
	C324.047211,180.954605 324.027863,181.002213 324.144348,181.194977 
	C324.468292,181.657181 324.733246,181.845917 325.055664,181.953949 
	C325.055664,181.953949 324.994629,181.989349 325.143127,182.190979 
	C325.573639,182.582489 325.855682,182.772369 326.137726,182.962250 
	C326.414581,183.116653 326.636261,183.328735 326.781128,184.063080 
	C326.506104,185.018860 326.252747,185.510040 325.667664,185.956451 
	C323.549316,185.608978 321.762726,185.306274 319.976105,185.003586 
z"/>
<path fill="#12296C" opacity="1.000000" stroke="none" 
	d="
M270.982513,170.021149 
	C270.796234,172.905350 270.609985,175.789551 270.712097,179.302979 
	C271.346863,185.998871 271.693268,192.065521 272.046936,198.259735 
	C267.146545,199.693253 264.447632,197.805634 264.008148,192.170105 
	C263.664917,187.768463 263.318298,183.367096 262.973175,178.965607 
	C262.997162,178.527527 263.021149,178.089447 263.275208,177.074051 
	C263.269562,170.008331 263.269562,170.008179 269.999969,170.011154 
	C270.327484,170.011292 270.654999,170.017670 270.982513,170.021149 
z"/>
<path fill="#12296C" opacity="1.000000" stroke="none" 
	d="
M273.981934,234.029053 
	C273.661438,236.729736 272.365967,238.089996 269.446045,238.045349 
	C266.230469,237.996155 264.060120,236.957626 263.290497,233.292480 
	C263.099396,232.563110 263.153412,232.093842 263.346008,231.149689 
	C263.520447,230.333313 263.364960,230.104660 263.018158,229.988846 
	C263.018158,229.988846 263.003937,229.977905 263.018005,229.749481 
	C263.032043,229.521057 263.039642,229.072586 263.299286,228.746765 
	C263.708405,224.280258 263.857849,220.139572 264.242310,215.761993 
	C264.654266,213.361191 264.831207,211.197296 265.403442,209.029938 
	C266.852631,209.036880 267.906586,209.047256 268.978882,209.384430 
	C269.336945,210.472504 269.676575,211.233795 270.028687,212.413223 
	C270.361816,216.887634 270.682495,220.943924 270.752441,225.264923 
	C270.671478,227.355453 270.841248,229.181244 271.046234,231.322083 
	C271.716248,232.421402 272.351044,233.205673 273.234985,234.000885 
	C273.484131,234.011841 273.982910,234.016281 273.982910,234.016281 
	C273.982910,234.016281 273.992767,234.017670 273.981934,234.029053 
z"/>
<path fill="#252D5A" opacity="1.000000" stroke="none" 
	d="
M210.056702,225.943481 
	C203.620834,222.871048 201.880829,216.257751 199.137177,210.666946 
	C194.367737,200.948151 193.739502,190.288269 196.083939,179.958282 
	C198.475037,169.422745 203.971054,160.292374 213.601105,153.970688 
	C213.997040,153.997253 214.082123,154.081787 214.055588,154.461365 
	C213.300644,156.179642 212.766998,157.684418 211.799454,158.819214 
	C210.241562,160.646362 207.961197,161.968399 206.763901,163.969284 
	C204.184448,168.279907 202.017181,172.846710 199.828506,177.379791 
	C194.071365,189.303665 198.472946,200.644608 202.391022,211.780106 
	C204.147720,216.772842 207.486572,221.208893 210.094772,225.909485 
	C210.082092,225.921432 210.056702,225.943481 210.056702,225.943481 
z"/>
<path fill="#374257" opacity="1.000000" stroke="none" 
	d="
M131.008789,295.797333 
	C131.008911,291.199829 131.008911,287.075134 131.008911,283.054199 
	C140.262970,280.218140 146.991394,283.777252 146.959259,291.216156 
	C146.931808,297.571075 137.540192,303.065948 132.168777,299.720673 
	C131.374008,299.225708 131.375549,297.452179 131.008789,295.797333 
M135.000763,289.626740 
	C135.111389,292.004761 135.222000,294.382782 135.373489,297.639343 
	C138.084518,296.297913 140.526154,295.813538 141.639160,294.331390 
	C142.708603,292.907288 143.260315,289.970703 142.478455,288.570312 
	C141.544678,286.897888 138.951920,286.151764 137.077774,285.004364 
	C136.384842,286.248688 135.691925,287.492981 135.000763,289.626740 
z"/>
<path fill="#374257" opacity="1.000000" stroke="none" 
	d="
M178.111145,284.025482 
	C179.393005,280.299194 182.023758,282.939484 182.991562,283.704010 
	C186.217697,286.252655 187.023468,290.157867 185.778275,293.962555 
	C184.661652,297.374420 182.108063,299.698761 178.189560,299.986053 
	C170.576935,300.544281 170.094055,300.123260 170.006866,292.375336 
	C169.969711,289.074097 170.000656,285.772125 170.000656,282.257874 
	C173.199356,282.047089 175.547256,281.563690 174.308243,285.954895 
	C173.568451,288.576874 173.947052,291.543182 173.997360,294.351593 
	C174.052582,297.433411 175.888199,297.449890 178.034943,296.344574 
	C182.797256,293.892700 182.887115,290.348358 178.111145,284.025482 
z"/>
<path fill="#374257" opacity="1.000000" stroke="none" 
	d="
M266.279999,290.139160 
	C265.721680,292.570770 265.510223,294.747192 264.798279,296.745270 
	C264.360016,297.975128 263.157471,298.932678 262.298096,300.012482 
	C261.397980,299.102600 260.388031,298.274963 259.628326,297.259979 
	C258.853577,296.224823 258.324829,295.005524 257.423523,293.393005 
	C256.670593,295.862579 256.071869,297.826385 255.474182,299.787537 
	C250.677994,299.461884 247.541748,291.140228 250.832626,285.439026 
	C251.934433,287.440582 252.805450,289.022858 254.143143,291.452911 
	C255.222427,289.456665 256.053558,287.919373 256.884705,286.382080 
	C257.542053,285.693451 258.199432,285.004852 258.856812,284.316223 
	C259.873871,286.457916 260.890961,288.599609 261.800964,290.515778 
	C263.168610,288.791931 264.410858,287.226166 265.653076,285.660400 
	C266.046783,285.935181 266.440491,286.209961 266.834198,286.484741 
	C266.694672,287.592743 266.555115,288.700714 266.279999,290.139160 
z"/>
<path fill="#374257" opacity="1.000000" stroke="none" 
	d="
M205.962097,281.467957 
	C208.284302,282.590790 210.298782,283.524780 212.313248,284.458801 
	C212.014282,285.147491 211.715317,285.836151 211.416351,286.524841 
	C209.865463,286.086914 208.329681,285.375854 206.759399,285.289093 
	C205.239746,285.205078 203.684601,285.763489 202.145035,286.039734 
	C203.373535,287.032990 204.463638,288.564240 205.855545,288.922363 
	C210.757874,290.183655 212.874771,292.311493 211.801361,296.296387 
	C211.421356,297.707062 209.785751,299.512878 208.453827,299.776581 
	C205.914917,300.279175 203.131516,300.079895 200.552765,299.608154 
	C199.380798,299.393768 198.454727,297.835205 197.417099,296.886353 
	C197.681580,296.563202 197.946045,296.240021 198.210510,295.916870 
	C201.338684,296.138184 204.466858,296.359467 207.595047,296.580780 
	C207.751801,295.951996 207.908569,295.323212 208.065323,294.694397 
	C206.638184,293.918854 205.284851,292.712616 203.769302,292.452820 
	C200.032227,291.812256 197.096008,291.068115 197.980270,286.083496 
	C198.820007,281.349792 201.951004,281.039917 205.962097,281.467957 
z"/>
<path fill="#3C465D" opacity="1.000000" stroke="none" 
	d="
M276.119690,285.983032 
	C277.992218,287.669159 280.226990,289.071075 280.757233,290.953186 
	C281.490845,293.557190 280.941376,296.522644 280.941376,299.658569 
	C279.150940,299.845886 277.724701,300.032654 276.292480,300.138641 
	C268.878235,300.687347 267.620483,298.956604 270.383118,292.121674 
	C270.677673,291.392883 271.000580,290.470154 270.804688,289.781158 
	C269.266388,284.370239 271.844757,284.350769 276.119690,285.983032 
z"/>
<path fill="#202955" opacity="1.000000" stroke="none" 
	d="
M262.665039,179.256042 
	C263.318298,183.367096 263.664917,187.768463 264.008148,192.170105 
	C264.447632,197.805634 267.146545,199.693253 272.046936,198.259735 
	C271.693268,192.065521 271.346863,185.998871 271.001526,179.467316 
	C271.798492,177.449875 272.594391,175.897308 273.622467,174.440186 
	C273.911011,174.711304 273.967407,174.886932 274.023743,175.062576 
	C274.007446,178.702652 273.934845,182.343582 273.989105,185.982605 
	C274.056122,190.477570 272.542572,195.786087 279.413361,197.004929 
	C279.849884,197.082352 280.135895,198.008469 280.477295,198.517944 
	C277.626648,201.275497 265.865662,202.175552 263.349182,199.793106 
	C262.600342,199.084137 261.924103,197.854797 261.928436,196.867035 
	C261.953766,191.092987 262.191132,185.319901 262.665039,179.256042 
z"/>
<path fill="#374257" opacity="1.000000" stroke="none" 
	d="
M333.003540,287.920044 
	C331.726349,291.908417 328.948822,293.627441 325.128082,293.136536 
	C323.975433,295.587463 322.947693,297.772827 321.919952,299.958160 
	C321.317749,299.795410 320.715576,299.632660 320.113373,299.469910 
	C320.113373,294.452728 319.846436,289.410736 320.308838,284.436523 
	C320.418793,283.253815 322.852264,281.660156 324.422516,281.370789 
	C327.685822,280.769409 330.663025,281.644196 331.969543,286.027649 
	C332.501007,287.028046 332.752258,287.474060 333.003540,287.920044 
z"/>
<path fill="#374257" opacity="1.000000" stroke="none" 
	d="
M354.999969,296.210083 
	C355.417511,297.351746 355.447662,298.560791 355.477814,299.769867 
	C352.333191,299.339874 348.260712,299.940033 346.310822,298.183655 
	C344.444977,296.502991 343.510895,291.812836 344.533813,289.485596 
	C345.457336,287.384583 349.552307,285.820312 352.306732,285.726624 
	C353.783417,285.676392 355.382446,289.223206 356.926270,291.146820 
	C355.457306,292.073120 354.077301,293.223358 352.490784,293.853760 
	C351.255646,294.344543 349.763306,294.188110 348.385284,294.319275 
	C348.369629,294.971985 348.354004,295.624725 348.338348,296.277466 
	C350.429749,296.277466 352.521179,296.277466 354.999969,296.210083 
z"/>
<path fill="#374257" opacity="1.000000" stroke="none" 
	d="
M215.641235,287.788452 
	C217.316971,283.265839 220.643829,284.806702 222.831329,285.875031 
	C226.483978,287.658875 228.650681,291.286774 227.598892,295.278687 
	C227.089996,297.210236 224.284332,299.638397 222.283173,299.878296 
	C214.860046,300.768097 211.948318,295.464691 215.641235,287.788452 
M222.921265,290.428101 
	C221.641663,290.352264 219.329269,289.976624 219.250137,290.249268 
	C218.737579,292.014984 218.640778,293.921967 218.640335,295.782715 
	C218.640289,295.960693 220.878204,296.474945 220.988541,296.263855 
	C221.837936,294.639282 222.418320,292.874054 222.921265,290.428101 
z"/>
<path fill="#3C465D" opacity="1.000000" stroke="none" 
	d="
M237.835342,283.147095 
	C240.053284,282.509277 242.131821,281.411591 243.341827,284.956085 
	C243.771729,286.215363 246.311508,286.754425 249.018478,288.244446 
	C246.351944,288.852448 245.002731,289.160065 243.651993,289.468689 
	C241.665482,293.651215 243.152679,296.663666 246.928329,299.663513 
	C244.923294,299.837799 242.918243,300.012085 240.613266,300.212463 
	C239.601257,296.130005 238.645508,292.274475 237.374329,288.241760 
	C237.058884,288.064514 236.986313,288.003510 236.997559,287.646332 
	C237.045975,286.814148 237.083130,286.339172 237.359619,285.780884 
	C237.681213,285.081635 237.763474,284.465668 237.863388,283.673767 
	C237.881042,283.497803 237.835342,283.147095 237.835342,283.147095 
z"/>
<path fill="#313C4F" opacity="1.000000" stroke="none" 
	d="
M368.968964,286.456543 
	C369.498413,284.445587 370.019196,282.874298 370.539978,281.303040 
	C371.195038,281.346497 371.850098,281.389954 372.505188,281.433411 
	C372.775696,286.349670 373.046204,291.265930 373.335052,296.515625 
	C376.124481,296.841705 378.818634,297.156677 381.512817,297.471619 
	C381.452881,298.252899 381.392944,299.034210 381.333038,299.815491 
	C377.970154,299.815491 374.567413,300.099060 371.269653,299.635681 
	C370.329895,299.503662 369.180695,297.259186 369.026398,295.882690 
	C368.694550,292.921906 368.946991,289.895660 368.968964,286.456543 
z"/>
<path fill="#1D264C" opacity="1.000000" stroke="none" 
	d="
M248.352905,147.912018 
	C248.635422,146.721512 249.287033,145.577789 250.010803,144.089874 
	C257.186829,143.040131 264.290710,142.334595 271.394592,141.629059 
	C271.500763,142.254486 271.606934,142.879929 271.713104,143.505356 
	C264.726776,147.802704 256.406586,146.561142 248.352905,147.912018 
z"/>
<path fill="#374257" opacity="1.000000" stroke="none" 
	d="
M295.957611,288.918060 
	C295.977051,283.773773 300.299316,284.104645 302.597534,285.226196 
	C304.883911,286.341980 306.035461,289.783173 307.684631,292.204712 
	C306.758209,292.776276 305.880646,293.709839 304.895020,293.843018 
	C302.930786,294.108337 300.907196,293.933960 298.463562,293.646454 
	C298.593170,292.329102 299.167328,291.306580 299.658875,290.431213 
	C298.523376,289.966980 297.240509,289.442505 295.957611,288.918060 
z"/>
<path fill="#1D264C" opacity="1.000000" stroke="none" 
	d="
M280.580627,261.164795 
	C279.307251,262.106720 277.608215,262.991547 276.117920,263.767700 
	C278.376404,264.272888 280.938507,264.846008 283.744568,265.679138 
	C277.088867,266.382599 270.189209,266.826019 263.289520,267.269409 
	C263.193695,266.558044 263.097839,265.846680 263.002014,265.135315 
	C268.064514,261.502197 274.260132,261.830750 280.580627,261.164795 
z"/>
<path fill="#3C465D" opacity="1.000000" stroke="none" 
	d="
M401.032562,285.172943 
	C401.032562,283.946014 401.032562,282.719055 401.032562,281.492126 
	C401.408936,281.211761 401.785278,280.931396 402.161652,280.651031 
	C403.086243,281.800446 404.738098,282.906921 404.808899,284.106720 
	C405.107727,289.170441 404.935425,294.261963 404.935425,300.030914 
	C403.033997,300.030914 401.475159,300.030914 399.648376,299.748413 
	C399.525116,298.624481 399.669830,297.783051 399.975037,296.612244 
	C400.104401,293.773956 400.073242,291.264984 400.088501,288.446960 
	C400.434113,287.149597 400.733337,286.161285 401.032562,285.172943 
z"/>
<path fill="#374257" opacity="1.000000" stroke="none" 
	d="
M165.058014,292.828186 
	C163.403641,293.075531 162.089966,293.149963 160.721298,293.227478 
	C160.095490,295.540649 159.496948,297.752991 158.527145,301.337585 
	C156.335663,296.856354 157.311066,291.071136 150.721588,292.072906 
	C152.522781,291.275879 154.323959,290.478851 156.187897,289.654053 
	C156.478851,287.661865 156.789444,285.535187 157.100037,283.408478 
	C157.458832,283.312927 157.817642,283.217407 158.176437,283.121857 
	C159.047516,285.503296 159.918579,287.884766 160.789688,290.266327 
	C162.197983,290.996277 163.798340,291.825775 165.058014,292.828186 
z"/>
<path fill="#374257" opacity="1.000000" stroke="none" 
	d="
M287.992126,298.634277 
	C287.444305,299.347473 286.685364,300.016449 286.456696,299.868103 
	C282.164520,297.083282 284.366882,292.728119 284.295074,289.077332 
	C284.275238,288.068848 287.023346,286.728943 288.707062,286.053955 
	C289.991577,285.539001 291.600739,285.833893 294.436920,285.707306 
	C291.004333,289.800385 286.039581,292.589813 287.992126,298.634277 
z"/>
<path fill="#313C4F" opacity="1.000000" stroke="none" 
	d="
M400.640381,285.135742 
	C400.733337,286.161285 400.434113,287.149597 399.709656,288.526398 
	C398.208832,290.656311 396.785614,292.303711 396.273468,294.197540 
	C396.123383,294.752441 398.562256,296.007446 399.814514,296.941589 
	C399.669830,297.783051 399.525116,298.624481 399.210144,299.699158 
	C393.436981,301.353027 392.826996,297.082825 392.200439,293.504272 
	C391.514191,289.584778 395.482941,285.734467 400.640381,285.135742 
z"/>
<path fill="#202955" opacity="1.000000" stroke="none" 
	d="
M271.412659,170.013458 
	C270.654999,170.017670 270.327484,170.011292 269.999969,170.011154 
	C263.269562,170.008179 263.269562,170.008331 263.264832,176.744995 
	C260.028809,174.989120 256.894653,173.158859 254.085800,170.920441 
	C252.178238,169.400284 252.630905,168.084732 255.953659,168.296753 
	C264.098846,168.726517 271.546570,168.854675 278.994293,168.982834 
	C276.610474,169.323807 274.226654,169.664780 271.412659,170.013458 
z"/>
<path fill="#1E2957" opacity="1.000000" stroke="none" 
	d="
M274.996033,173.832016 
	C277.490723,173.338806 280.026428,172.275375 282.472992,172.451370 
	C292.925110,173.203262 304.207397,170.457031 312.944702,179.076096 
	C313.634003,179.756088 314.110474,180.651825 314.793488,181.771240 
	C310.154785,179.706787 305.408478,177.318359 300.102722,174.535126 
	C291.360809,174.037537 283.178436,173.934784 274.996033,173.832016 
z"/>
<path fill="#444C61" opacity="1.000000" stroke="none" 
	d="
M295.614197,289.156799 
	C297.240509,289.442505 298.523376,289.966980 299.658875,290.431213 
	C299.167328,291.306580 298.593170,292.329102 298.020752,293.692017 
	C299.878632,299.020752 304.400360,295.340546 307.915009,296.861786 
	C306.150360,301.705353 302.141907,300.034302 299.386414,299.788971 
	C297.794037,299.647217 295.750397,297.440796 295.107422,295.716919 
	C294.424103,293.884979 295.156555,291.524963 295.614197,289.156799 
z"/>
<path fill="#202955" opacity="1.000000" stroke="none" 
	d="
M271.003174,225.000198 
	C270.682495,220.943924 270.361816,216.887634 270.293823,212.274231 
	C271.050507,211.107620 271.554474,210.498138 272.058441,209.888641 
	C272.700745,213.492920 273.563446,217.075668 273.917969,220.708038 
	C274.219910,223.802002 273.936920,226.953049 273.556702,230.541870 
	C272.802490,231.001190 272.404297,230.997482 272.004425,230.592896 
	C271.669556,228.461411 271.336365,226.730804 271.003174,225.000198 
z"/>
<path fill="#FFFFFF" opacity="1.000000" stroke="none" 
	d="
M235.147095,240.396423 
	C248.633835,239.975571 262.292694,240.018936 275.949341,239.864838 
	C277.287231,239.849747 278.611450,238.620499 279.985199,237.529083 
	C280.400940,237.871048 281.253418,239.133347 281.061615,239.319458 
	C280.296753,240.061630 279.212402,240.917877 278.236237,240.930115 
	C268.917999,241.046997 259.597656,241.021423 250.278030,240.991333 
	C245.291412,240.975235 240.305084,240.870285 235.147095,240.396423 
z"/>
<path fill="#374257" opacity="1.000000" stroke="none" 
	d="
M386.781372,289.957977 
	C387.397980,292.871643 388.014557,295.785339 388.849884,299.732819 
	C387.743652,299.574310 384.665924,299.929443 384.066437,298.875244 
	C382.950470,296.912781 383.277588,294.129700 383.269958,291.165710 
	C384.617706,290.414825 385.699554,290.186401 386.781372,289.957977 
z"/>
<path fill="#202955" opacity="1.000000" stroke="none" 
	d="
M268.960510,209.057648 
	C267.906586,209.047256 266.852631,209.036880 265.070129,209.025360 
	C263.562744,209.868546 262.834045,210.767670 261.989075,211.539520 
	C261.332520,212.139297 260.530975,212.580368 259.793854,213.091980 
	C256.721588,211.913666 253.649307,210.735367 250.739716,209.264389 
	C257.588165,208.660416 264.273895,208.349121 270.959625,208.037811 
	C270.959625,208.037811 271.107849,208.474945 270.771698,208.725708 
	C269.943878,209.003525 269.452179,209.030594 268.960510,209.057648 
z"/>
<path fill="#3C465D" opacity="1.000000" stroke="none" 
	d="
M333.177185,288.242371 
	C332.752258,287.474060 332.501007,287.028046 332.124451,286.359039 
	C333.582336,284.752930 335.165497,283.369812 338.009705,280.884979 
	C338.009705,285.532288 338.009705,288.864990 337.638947,292.596497 
	C336.624512,292.986969 335.980865,292.978607 335.337189,292.970276 
	C334.675079,291.501740 334.012939,290.033203 333.177185,288.242371 
z"/>
<path fill="#444C61" opacity="1.000000" stroke="none" 
	d="
M387.018677,289.699432 
	C385.699554,290.186401 384.617706,290.414825 383.321533,290.795166 
	C382.939636,288.048157 382.772064,285.149231 382.604492,282.250305 
	C383.274048,282.022797 383.943604,281.795288 384.613159,281.567749 
	C385.456085,282.803680 386.202484,284.122131 387.168976,285.252411 
	C388.141632,286.389923 389.333160,287.340302 390.595093,288.529388 
	C389.401733,288.855164 388.328857,289.148010 387.018677,289.699432 
z"/>
<path fill="#313C4F" opacity="1.000000" stroke="none" 
	d="
M234.135162,289.080475 
	C234.074677,291.908295 234.212997,294.761963 233.851044,297.550629 
	C233.715561,298.594452 232.415131,299.487030 231.645844,300.448547 
	C231.312881,300.201508 230.979919,299.954437 230.646957,299.707367 
	C230.646957,296.716064 230.646957,293.724731 231.099884,290.240417 
	C232.413589,289.525085 233.274368,289.302795 234.135162,289.080475 
z"/>
<path fill="#374257" opacity="1.000000" stroke="none" 
	d="
M335.244995,293.395508 
	C335.980865,292.978607 336.624512,292.986969 337.591370,292.994263 
	C339.249878,294.742401 340.585205,296.491638 342.604614,299.137024 
	C341.436462,299.358124 339.617523,300.122101 337.895813,299.944397 
	C333.817383,299.523438 335.219208,296.262543 335.244995,293.395508 
z"/>
<path fill="#DED5E4" opacity="1.000000" stroke="none" 
	d="
M270.841614,207.606216 
	C264.273895,208.349121 257.588165,208.660416 250.469086,209.055435 
	C248.666367,208.973526 247.296967,208.807892 245.927551,208.642258 
	C245.933746,208.153046 245.939926,207.663834 245.946106,207.174622 
	C254.205261,207.174622 262.464417,207.174622 270.841614,207.606216 
z"/>
<path fill="#444C61" opacity="1.000000" stroke="none" 
	d="
M279.447815,168.976288 
	C271.546570,168.854675 264.098846,168.726517 256.330139,168.338562 
	C266.805267,168.167786 277.601349,168.256790 288.662537,168.664352 
	C285.918884,168.978516 282.910095,168.974121 279.447815,168.976288 
z"/>
<path fill="#FFFFFF" opacity="1.000000" stroke="none" 
	d="
M261.232666,233.109467 
	C252.627777,233.364670 243.577621,233.585266 234.323029,233.433685 
	C243.008194,233.065933 251.897827,233.070389 261.232666,233.109467 
z"/>
<path fill="#555E7D" opacity="1.000000" stroke="none" 
	d="
M445.038757,217.494888 
	C445.355499,223.015274 445.726868,228.999985 445.902161,234.990448 
	C445.992798,238.089249 445.735809,241.198212 445.369385,244.609299 
	C445.072632,235.931213 445.042358,226.946411 445.038757,217.494888 
z"/>
<path fill="#444C61" opacity="1.000000" stroke="none" 
	d="
M234.469879,289.057678 
	C233.274368,289.302795 232.413589,289.525085 231.246399,289.892334 
	C228.529404,287.894073 226.725967,285.933777 231.814835,284.985596 
	C232.787781,284.804321 233.597229,283.745605 234.808929,283.294922 
	C235.135727,283.498138 235.159409,283.846497 234.935684,283.980042 
	C234.500549,284.374359 234.289139,284.635101 233.938797,285.009247 
	C233.722748,285.211823 233.562485,285.346405 233.582291,285.382690 
	C233.691101,285.582031 233.843994,285.757324 234.041321,286.282288 
	C235.062698,287.083679 236.024506,287.543579 236.986313,288.003510 
	C236.986313,288.003510 237.058884,288.064514 237.098724,288.091644 
	C236.360565,288.424164 235.582581,288.729523 234.469879,289.057678 
z"/>
<path fill="#DED5E4" opacity="1.000000" stroke="none" 
	d="
M274.744568,173.893646 
	C283.178436,173.934784 291.360809,174.037537 299.708557,174.538406 
	C291.567474,174.969330 283.261078,175.002151 274.489197,175.048782 
	C273.967407,174.886932 273.911011,174.711304 273.915741,174.265839 
	C274.148895,173.982437 274.320984,173.968857 274.744568,173.893646 
z"/>
<path fill="#202955" opacity="1.000000" stroke="none" 
	d="
M264.007324,215.998901 
	C263.857849,220.139572 263.708405,224.280258 263.281738,228.411011 
	C262.693787,227.614746 262.382996,226.828415 262.072205,226.042084 
	C262.055573,222.993088 262.038971,219.944107 262.384674,216.444702 
	C263.167114,215.995834 263.587219,215.997360 264.007324,215.998901 
z"/>
<path fill="#1F2C5B" opacity="1.000000" stroke="none" 
	d="
M264.242310,215.761993 
	C263.587219,215.997360 263.167114,215.995834 262.432892,215.990692 
	C261.417847,215.217804 260.716919,214.448486 259.904907,213.385590 
	C260.530975,212.580368 261.332520,212.139297 261.989075,211.539520 
	C262.834045,210.767670 263.562744,209.868546 264.674835,209.028809 
	C264.831207,211.197296 264.654266,213.361191 264.242310,215.761993 
z"/>
<path fill="#252D5A" opacity="1.000000" stroke="none" 
	d="
M215.988693,229.031662 
	C217.388107,230.838608 218.787537,232.645554 220.096619,234.718323 
	C217.627884,233.346512 215.249496,231.708862 212.843964,229.644638 
	C212.816818,229.218079 213.008163,228.991821 213.340576,228.993774 
	C214.116379,228.989746 214.559769,228.983780 215.249634,228.989685 
	C215.496094,229.001556 215.988693,229.031662 215.988693,229.031662 
z"/>
<path fill="#1D264C" opacity="1.000000" stroke="none" 
	d="
M286.432922,265.846924 
	C287.997742,262.978912 290.325714,263.477905 292.885559,265.451843 
	C290.958771,265.827942 288.913177,265.867218 286.432922,265.846924 
z"/>
<path fill="#1D264C" opacity="1.000000" stroke="none" 
	d="
M237.403366,150.052002 
	C238.522186,149.233017 239.982544,148.337036 241.679565,147.626694 
	C240.525787,148.533218 239.135345,149.254120 237.403366,150.052002 
z"/>
<path fill="#1E2957" opacity="1.000000" stroke="none" 
	d="
M323.916656,180.664337 
	C322.719238,179.873245 321.391235,178.791901 320.080353,177.334229 
	C321.327026,178.096619 322.556549,179.235336 323.916656,180.664337 
z"/>
<path fill="#1F2C5B" opacity="1.000000" stroke="none" 
	d="
M268.978882,209.384445 
	C269.452179,209.030594 269.943878,209.003525 270.805298,208.954041 
	C271.452332,209.057526 271.679657,209.244247 271.957703,209.690216 
	C271.554474,210.498138 271.050507,211.107620 270.281372,211.856094 
	C269.676575,211.233795 269.336945,210.472504 268.978882,209.384445 
z"/>
<path fill="#252D5A" opacity="1.000000" stroke="none" 
	d="
M212.721802,229.331757 
	C211.781036,228.503418 210.935287,227.561401 210.073120,226.281433 
	C210.056702,225.943481 210.082092,225.921432 210.397781,225.973297 
	C211.472382,226.357773 212.231308,226.690369 212.992371,227.351044 
	C212.999084,228.116684 213.003632,228.554245 213.008163,228.991821 
	C213.008163,228.991821 212.816818,229.218079 212.721802,229.331757 
z"/>
<path fill="#1E2957" opacity="1.000000" stroke="none" 
	d="
M316.978729,174.639755 
	C315.844971,174.506363 314.515564,174.093155 313.105530,173.320892 
	C314.277618,173.427872 315.530365,173.893906 316.978729,174.639755 
z"/>
<path fill="#1F2C5B" opacity="1.000000" stroke="none" 
	d="
M272.006104,230.993774 
	C272.404297,230.997482 272.802490,231.001190 273.497375,231.007233 
	C273.814178,231.183517 273.834229,231.357437 273.649841,231.983780 
	C273.292236,232.954102 273.139008,233.472015 272.985809,233.989929 
	C272.351044,233.205673 271.716248,232.421402 271.294983,231.319702 
	C271.508453,231.002258 272.006104,230.993774 272.006104,230.993774 
z"/>
<path fill="#1E2957" opacity="1.000000" stroke="none" 
	d="
M325.999390,186.001221 
	C326.252747,185.510040 326.506104,185.018860 326.873199,184.276077 
	C327.399414,184.729065 327.811951,185.433670 328.252441,186.455902 
	C328.280396,186.773529 328.128784,186.891586 327.810272,186.948120 
	C327.491760,187.004669 327.000000,187.000610 326.793213,186.877441 
	C326.327789,186.552322 326.132111,186.301315 325.999390,186.001221 
z"/>
<path fill="#252D5A" opacity="1.000000" stroke="none" 
	d="
M215.932068,152.278748 
	C216.137833,152.711166 216.109390,152.965439 215.718201,153.613037 
	C214.931000,154.031509 214.506561,154.056656 214.082123,154.081787 
	C214.082123,154.081787 213.997040,153.997253 213.953964,153.954666 
	C214.506546,153.308258 215.102203,152.704422 215.932068,152.278748 
z"/>
<path fill="#1F2C5B" opacity="1.000000" stroke="none" 
	d="
M262.035278,226.404221 
	C262.382996,226.828415 262.693787,227.614746 263.022095,228.736832 
	C263.039642,229.072586 263.032043,229.521057 263.028442,229.745117 
	C262.682648,228.901581 262.340515,227.833969 262.035278,226.404221 
z"/>
<path fill="#DED5E4" opacity="1.000000" stroke="none" 
	d="
M235.159409,283.846497 
	C235.159409,283.846497 235.135727,283.498138 235.151062,283.324219 
	C235.833588,283.139923 236.500763,283.129547 237.501648,283.133118 
	C237.835342,283.147095 237.881042,283.497803 237.527435,283.688416 
	C236.502365,283.868164 235.830887,283.857330 235.159409,283.846497 
z"/>
<path fill="#202955" opacity="1.000000" stroke="none" 
	d="
M273.234985,234.000885 
	C273.139008,233.472015 273.292236,232.954102 273.639099,232.246185 
	C273.883453,232.490204 273.934204,232.924255 273.983948,233.687286 
	C273.982910,234.016281 273.484131,234.011841 273.234985,234.000885 
z"/>
<path fill="#282E59" opacity="1.000000" stroke="none" 
	d="
M190.262848,67.616684 
	C190.218033,67.205284 190.456314,66.720749 190.937927,66.089920 
	C190.969482,66.476936 190.757721,67.010246 190.262848,67.616684 
z"/>
<path fill="#202955" opacity="1.000000" stroke="none" 
	d="
M263.074036,230.229126 
	C263.364960,230.104660 263.520447,230.333313 263.401642,230.800049 
	C263.318695,230.925278 263.129944,230.469406 263.074036,230.229126 
z"/>
<path fill="#1D264C" opacity="1.000000" stroke="none" 
	d="
M285.734894,261.124908 
	C285.972626,261.165985 285.622528,261.440765 285.622528,261.440765 
	C285.622528,261.440765 285.204742,261.357819 285.110291,261.237213 
	C285.015808,261.116608 285.497162,261.083832 285.734894,261.124908 
z"/>
<path fill="#1E2957" opacity="1.000000" stroke="none" 
	d="
M319.971375,176.676682 
	C319.729706,176.833435 319.465454,176.662949 319.114990,176.221924 
	C319.288116,176.157349 319.594818,176.290039 319.971375,176.676682 
z"/>
<path fill="#1E2957" opacity="1.000000" stroke="none" 
	d="
M312.947693,172.751877 
	C312.736420,172.884125 312.484344,172.719162 312.145630,172.302155 
	C312.381653,172.076584 312.664246,172.211441 312.947693,172.751877 
z"/>
<path fill="#1E2957" opacity="1.000000" stroke="none" 
	d="
M326.035950,182.716278 
	C325.855682,182.772369 325.573639,182.582489 325.168396,182.165665 
	C325.341522,182.115906 325.637878,182.293106 326.035950,182.716278 
z"/>
<path fill="#1E2957" opacity="1.000000" stroke="none" 
	d="
M324.951904,181.725540 
	C324.733246,181.845917 324.468292,181.657181 324.143372,181.170380 
	C324.299957,181.134384 324.574066,181.315750 324.951904,181.725540 
z"/>
<path fill="#12296C" opacity="1.000000" stroke="none" 
	d="
M214.055588,154.461365 
	C214.506561,154.056656 214.931000,154.031509 215.674667,153.994354 
	C217.607132,153.541641 219.336334,153.335144 220.807083,152.606781 
	C223.159607,151.441711 225.340622,149.930328 227.594131,148.565338 
	C227.966568,149.134186 228.339020,149.703033 228.711456,150.271881 
	C225.923584,152.234314 222.826889,153.876205 220.400406,156.213776 
	C208.874390,167.317459 204.986313,180.983627 207.379349,196.644989 
	C208.028717,200.894760 207.803528,205.406021 209.174316,209.385788 
	C210.946503,214.530899 214.027023,219.213287 216.295822,224.207748 
	C216.873306,225.479004 216.511978,227.176697 216.285339,228.855072 
	C215.988693,229.031662 215.496094,229.001556 215.189880,228.682190 
	C214.252533,227.916214 213.621368,227.469589 212.990219,227.022964 
	C212.231308,226.690369 211.472382,226.357773 210.410461,225.961365 
	C207.486572,221.208893 204.147720,216.772842 202.391022,211.780106 
	C198.472946,200.644608 194.071365,189.303665 199.828506,177.379791 
	C202.017181,172.846710 204.184448,168.279907 206.763901,163.969284 
	C207.961197,161.968399 210.241562,160.646362 211.799454,158.819214 
	C212.766998,157.684418 213.300644,156.179642 214.055588,154.461365 
z"/>
<path fill="#12296C" opacity="1.000000" stroke="none" 
	d="
M325.667664,185.956451 
	C326.132111,186.301315 326.327789,186.552322 326.911682,187.083527 
	C327.432739,187.670074 327.676300,187.868805 327.967621,188.009018 
	C334.085114,199.925308 339.669922,211.969910 336.981873,225.974792 
	C335.146576,235.536804 330.297852,243.260208 323.271637,249.976425 
	C317.684235,255.317337 311.353302,258.789154 303.059570,260.683380 
	C332.981415,240.674179 334.313873,214.832321 320.127319,185.315582 
	C321.762726,185.306274 323.549316,185.608978 325.667664,185.956451 
z"/>
<path fill="#18295E" opacity="1.000000" stroke="none" 
	d="
M327.975739,187.761047 
	C327.676300,187.868805 327.432739,187.670074 327.118469,187.206696 
	C327.000000,187.000610 327.491760,187.004669 327.737366,187.010742 
	C327.983002,187.016830 327.983856,187.513062 327.975739,187.761047 
z"/>
<path fill="#18295E" opacity="1.000000" stroke="none" 
	d="
M272.004425,230.592896 
	C272.006104,230.993774 271.508453,231.002258 271.259705,231.004639 
	C270.841248,229.181244 270.671478,227.355453 270.752441,225.264923 
	C271.336365,226.730804 271.669556,228.461411 272.004425,230.592896 
z"/>
<path fill="#000000" opacity="1.000000" stroke="none" 
	d="
M134.999878,289.182007 
	C135.691925,287.492981 136.384842,286.248688 137.077774,285.004364 
	C138.951920,286.151764 141.544678,286.897888 142.478455,288.570312 
	C143.260315,289.970703 142.708603,292.907288 141.639160,294.331390 
	C140.526154,295.813538 138.084518,296.297913 135.373489,297.639343 
	C135.222000,294.382782 135.111389,292.004761 134.999878,289.182007 
z"/>
<path fill="#000000" opacity="1.000000" stroke="none" 
	d="
M223.001709,290.790283 
	C222.418320,292.874054 221.837936,294.639282 220.988541,296.263855 
	C220.878204,296.474945 218.640289,295.960693 218.640335,295.782715 
	C218.640778,293.921967 218.737579,292.014984 219.250137,290.249268 
	C219.329269,289.976624 221.641663,290.352264 223.001709,290.790283 
z"/>
<path fill="#000000" opacity="1.000000" stroke="none" 
	d="
M234.935684,283.980042 
	C235.830887,283.857330 236.502365,283.868164 237.509796,283.864380 
	C237.763474,284.465668 237.681213,285.081635 237.320145,285.807495 
	C237.041336,285.917358 237.079514,286.005127 236.960098,285.670593 
	C235.919693,285.189301 234.998703,285.042572 234.077713,284.895844 
	C234.289139,284.635101 234.500549,284.374359 234.935684,283.980042 
z"/>
<path fill="#313C4F" opacity="1.000000" stroke="none" 
	d="
M236.997559,287.646332 
	C236.024506,287.543579 235.062698,287.083679 234.428619,286.259491 
	C235.530746,285.931854 236.305130,285.968506 237.079514,286.005127 
	C237.079514,286.005127 237.041336,285.917358 237.080811,285.890747 
	C237.083130,286.339172 237.045975,286.814148 236.997559,287.646332 
z"/>
<path fill="#000000" opacity="1.000000" stroke="none" 
	d="
M399.975037,296.612244 
	C398.562256,296.007446 396.123383,294.752441 396.273468,294.197540 
	C396.785614,292.303711 398.208832,290.656311 399.663269,288.835449 
	C400.073242,291.264984 400.104401,293.773956 399.975037,296.612244 
z"/>
<path fill="#858CA2" opacity="1.000000" stroke="none" 
	d="
M236.960098,285.670593 
	C236.305130,285.968506 235.530746,285.931854 234.369064,285.918030 
	C233.843994,285.757324 233.691101,285.582031 233.582291,285.382690 
	C233.562485,285.346405 233.722748,285.211823 233.938797,285.009247 
	C234.998703,285.042572 235.919693,285.189301 236.960098,285.670593 
z"/>
<path fill="#1F2C5B" opacity="1.000000" stroke="none" 
	d="
M212.992371,227.351044 
	C213.621368,227.469589 214.252533,227.916214 214.943420,228.670319 
	C214.559769,228.983780 214.116379,228.989746 213.340576,228.993774 
	C213.003632,228.554245 212.999084,228.116684 212.992371,227.351044 
z"/>
</svg>